<?xml version="1.0" encoding="utf-8"?>
<!-- Generator: Adobe Illustrator 16.0.0, SVG Export Plug-In . SVG Version: 6.00 Build 0)  -->
<!DOCTYPE svg PUBLIC "-//W3C//DTD SVG 1.1//EN" "http://www.w3.org/Graphics/SVG/1.1/DTD/svg11.dtd">
<svg version="1.1" id="Capa_1" xmlns="http://www.w3.org/2000/svg" xmlns:xlink="http://www.w3.org/1999/xlink" x="0px" y="0px"
	 width="398.81px" height="361.5px" viewBox="0 0 398.81 361.5" enable-background="new 0 0 398.81 361.5" xml:space="preserve">
<g id="svgg">
	<path id="path0" fill="none" d="M1,0.198"/>
	<path id="path1" fill="#EBE75E" d="M188.724,130.123c-0.638,0.138-1.011,1.491-1.51,5.47c-0.364,2.906-0.811,5.898-0.994,6.646
		c-0.29,1.188-0.167,1.124,0.966-0.494c1.671-2.389,3.646-3.827,5.456-3.972l1.437-0.116l-1.271-1.665
		c-0.698-0.917-1.713-2.652-2.253-3.858C189.916,130.709,189.274,130.004,188.724,130.123 M213.924,130.349
		c-0.472,0.472-0.105,1.218,1.495,3.036c8.957,10.175-2.833,28.064-18.501,28.071c-6.65,0.005-11.937-5.382-11.985-12.205
		c-0.012-1.723-0.1-1.632-1.343,1.392c-5.076,12.348-17.99,19.94-27.76,16.32c-1.197-0.444-2.41-0.862-2.694-0.93
		c-0.415-0.098-2.657,8.334-2.303,8.661c0.054,0.05,3.65-0.356,7.99-0.906c4.34-0.549,13.034-1.52,19.32-2.158l11.428-1.161
		l9.842-5.051c15.801-8.108,21.81-12.371,20.881-14.813c-0.79-2.075-0.642-4.037,0.854-11.256c1.31-6.317,1.328-6.664,0.408-7.37
		C218.927,129.961,215.124,129.149,213.924,130.349 M169.968,139.609c-7.209,5.74-8.428,7.714-8.415,13.633
		c0.023,11.052,7.302,2.733,10-11.427c0.412-2.161,0.711-3.93,0.664-3.93C172.171,137.885,171.158,138.661,169.968,139.609
		 M235.044,141.554c-0.794,2.858-0.722,3.406,0.447,3.406c2.396,0,2.95,4.813,0.913,7.922c-1.228,1.872-7.262,3.312-10.823,2.583
		l-2.789-0.572l-2.461,2.44c-3.247,3.22-8.008,6.594-13.649,9.676l-4.594,2.508l4.082-0.314c4.876-0.376,23.416-1.611,37.969-2.529
		c12.06-0.762,11.189-0.022,8.029-6.822c-2.736-5.89-5.29-9.565-10.2-14.679C236.171,139.133,235.773,138.926,235.044,141.554
		 M199.367,144.634c0,3.519-0.171,4.169-1.588,6.028l-1.588,2.084l2.329-0.313c6.482-0.869,8.354-7.544,2.96-10.563l-2.113-1.183
		V144.634 M235.559,191.49c-27.601,4.021-39.25,5.9-52.654,8.496l-11.565,2.24l0.012,2.252c0.016,3.305,2.34,9.338,5.221,13.555
		c9.684,14.172,28.495,17.445,52.182,9.078c13.378-4.727,23.693-18.74,27.121-36.846c0.185-0.973,0.157-1.746-0.06-1.717
		C255.6,188.574,246.482,189.9,235.559,191.49 M162.361,204.268c-3.293,0.791-5.939,1.689-5.88,1.998
		c0.67,3.512,9.825,14.277,15.675,18.428c14.22,10.09,36.51,13.154,51.16,7.033c4.101-1.713,1.281-2.039-4.774-0.551
		c-25.119,6.17-43.47-3.67-49.738-26.668l-0.457-1.678L162.361,204.268"/>
	<path id="path2" fill="#5BA25A" d="M351.477,86.149c-13.789,4.21-15.933,18.92-3.744,25.701c6.819,3.794,8.336,5.959,7.004,9.998
		c-2.299,6.962-10.101,9.541-15.098,4.99c-1.524-1.391-1.554-2.015-0.094-2.015c4.966,0,6.428-9.821,1.523-10.232
		c-4.619-0.388-7.467,7.48-4.694,12.972c5.528,10.953,26.53,1.589,26.53-11.827c0-5.255-2.477-8.436-8.707-11.186
		c-3.778-1.668-7.075-5.181-7.075-7.537c0-5.402,5.651-9.745,10.567-8.122c2.584,0.852,3.723,2.736,1.656,2.736
		c-4.518,0-6.8,8.569-2.771,10.405c4.658,2.123,9.341-8.758,5.738-13.337C360.135,85.927,355.652,84.874,351.477,86.149
		 M316.208,92.535c-9.976,2.362-15.748,10.613-18.354,26.231c-2.266,13.586,1.254,19.891,10.914,19.547
		c12.935-0.461,21.731-12.215,22.94-30.65C332.529,95.12,327.212,89.929,316.208,92.535 M321.463,96.018
		c4.684,5.027-0.236,30.528-7.082,36.712c-7.781,7.029-10.848-3.193-6.343-21.136C311.145,99.222,317.537,91.805,321.463,96.018
		 M283.331,98.668c-10.205,3.988-16.024,14.063-16.608,28.744l-0.287,7.216l-2.168,2.463c-3.267,3.712-7.424,5.334-8.238,3.214
		c-0.178-0.465,1.266-8.443,3.207-17.728c1.943-9.284,3.533-16.97,3.533-17.077s0.653-0.273,1.453-0.368
		c1.364-0.161,2.973-2.73,2.196-3.506c-0.515-0.515-13.721,2.07-17.528,3.431c-3.123,1.116-5.377,1.441-12.518,1.813
		c-12.607,0.655-15.277,1.763-18.196,7.544l-1.743,3.456l-0.914-1.791c-5.031-9.86-22.955-1.626-22.955,10.547
		c0,5.703,2.23,8.619,9.442,12.348c9.37,4.842,5.89,16.908-4.673,16.196c-4.688-0.316-7.906-3.679-4.225-4.414
		c4.493-0.899,5.176-10.15,0.75-10.15c-4.625,0-7.634,8.203-4.927,13.427c4.325,8.341,20.575,4.174,25.431-6.521
		c3.049-6.717,0.675-12.679-6.449-16.194c-8.756-4.319-10.525-9.337-5.04-14.293c2.478-2.237,4.771-2.857,7.38-1.996
		c2.044,0.674,3.713,2.72,2.219,2.72c-2.965,0-5.214,2.807-5.214,6.505c0,5.85,6.45,5.414,8.239-0.559
		c0.352-1.175,0.792-2.136,0.979-2.136s2.168-1.791,4.403-3.98c4.123-4.035,8.378-6.602,11.957-7.212l1.904-0.324l-2.515,1.634
		c-1.397,0.908-2.656,2.197-2.83,2.9c-5.239,21.096-7.26,35.384-5.258,37.194c1.813,1.641,10.317,0.816,10.338-1.003
		c0.004-0.351,0.155-1.189,0.336-1.863c0.278-1.038,0.114-1.224-1.076-1.224c-2.789,0-2.736-0.961,1.011-18.303
		c1.933-8.94,3.642-16.802,3.802-17.469l0.289-1.214l2.734,1.078c5.17,2.037,8.787,1.123,9.445-2.387
		c0.397-2.115,2.5-3.266,2.5-1.367c0,0.579-1.492,8.087-3.314,16.684c-3.727,17.576-3.88,20.091-1.352,22.266
		c3.994,3.434,12.633,0.063,17.092-6.67l1.654-2.495l0.832,1.607c2.748,5.318,9.73,6.323,17.313,2.492
		c5.306-2.681,10.342-8.96,8.96-11.173c-0.863-1.381-1.216-1.275-1.993,0.604c-1.029,2.486-5.525,6.383-8.193,7.101
		c-6.373,1.716-9.5-1.731-9.39-10.346c0.196-15.224,6.508-27.211,14.328-27.211c3.514,0,5.377,2.749,2.374,3.503
		c-3.666,0.92-6.202,4.661-6.202,9.146c0,6.294,5.808,5.497,9.185-1.259C299.911,102.061,293.645,94.636,283.331,98.668
		 M373.518,102.723c-5.295,2.312-9.115,8.779-6.893,11.668l0.975,1.267l0.774-2.344c1.844-5.588,7.226-8.782,12.265-7.278
		c10.324,3.08,12.217,15.75,4.082,27.317c-15.257,21.695-52.707,30.719-154.332,37.186c-127.115,8.091-181.854,23.26-211.507,58.614
		c-5.263,6.275-13.477,18.98-13.521,20.91c-0.004,0.189,1.891-0.59,4.21-1.73c18.493-9.088,38.151-8.285,48.412,1.977l2.833,2.832
		l0.941-1.438c1.924-2.939,12.058-12.834,16.797-16.4c21.488-16.172,53.063-27.998,99.481-37.26
		c21.132-4.217,32.494-5.965,100.788-15.51c32.061-4.48,44.015-6.667,58.387-10.683c41.74-11.664,65.226-34.346,58.356-56.357
		C392.492,105.642,381.46,99.252,373.518,102.723 M167.686,119.083c-9.892,3.091-15.77,12.614-17.489,28.338
		c-1.392,12.734,3.45,18.984,13.303,17.169c12.691-2.339,20.581-14.644,20.616-32.147
		C184.14,120.154,178.621,115.665,167.686,119.083 M174.031,122.072c4.07,4.07,0.554,27.373-5.301,35.133
		c-8.803,11.668-13.135-1.326-7.346-22.041C164.179,125.164,170.539,118.58,174.031,122.072 M140.32,123.799
		c-2.264,0.673-2.482,0.874-2.909,2.696c-0.301,1.281-0.199,1.383,1.185,1.179c2.989-0.438,3.01-0.032,0.923,17.77
		c-1.056,9.015-1.92,16.684-1.92,17.041c0,2.438-1.461-2.162-4.356-13.716c-5.206-20.775-7.676-23.803-16.817-20.616
		c-2.399,0.836-2.335,3.891,0.083,3.991c3.569,0.149,3.565,0.224-0.925,18.154c-4.577,18.277-4.693,19.16-2.772,21.081
		c2.227,2.227,8.577,1.443,9.574-1.182c0.772-2.027,0.668-2.214-1.089-1.956c-2.668,0.392-2.941-6.662-0.791-20.438
		c1.178-7.547,1.199-7.525,4.239,4.425c3.744,14.715,5.106,16.68,11.557,16.673c5.732-0.005,8.916-1.414,8.916-3.947
		c0-0.78-0.262-0.938-1.115-0.667c-3.55,1.127-3.45-0.559,1.115-18.783c4.04-16.132,4.398-18.743,2.835-20.675
		C146.904,123.411,143.26,122.925,140.32,123.799 M90.022,133.016c-10.161,3.581-16.129,13.994-16.982,29.631
		c-0.373,6.835-0.887,8.512-3.249,10.585c-3.637,3.193-4.94,2.344-8.313-5.416c-2.712-6.241-2.7-5.943-0.29-7.585
		c8.368-5.699,10.967-17.567,4.574-20.886c-6.422-3.333-24.577,2.049-27.692,8.208l-1.472,2.913l-1.337-2.024
		c-4.779-7.238-25.449-3.606-29.923,5.258c-2.448,4.85-1.369,6.006,2.312,2.479c2.438-2.336,9.035-6.601,9.497-6.138
		c0.126,0.126-1.108,1.422-2.743,2.88l-2.972,2.65l-3.039,14.251c-4.289,20.113-3.816,22.88,3.691,21.595
		c4.678-0.801,7.77-4.582,4.083-4.994c-2.125-0.236-2.379-1.641-1.261-6.968l0.958-4.563h1.977c10.808,0,19.077-8.426,19.077-19.438
		c0-2.305,0.195-3.362,0.575-3.129c0.315,0.196,1.846-0.843,3.401-2.307c2.522-2.375,8.267-6.147,9.362-6.147
		c0.229,0-1.086,1.409-2.923,3.131l-3.34,3.129l-2.816,13.061c-4.367,20.258-3.988,23.108,2.977,22.381
		c3.981-0.416,5.018-0.977,5.768-3.131c0.777-2.228,0.775-2.236-0.379-1.87c-2.295,0.729-3.1-0.877-2.384-4.76
		c1.92-10.421,2.23-11.26,4.16-11.26h1.766l0.947,5.85c1.589,9.822,3.437,12.51,8.226,11.971c3.41-0.385,7.213-2.893,9.49-6.259
		c2.209-3.265,2.297-3.304,3.276-1.476c3.327,6.218,15.485,4.914,22.903-2.456c9.737-9.675,12.563-33.159,4.678-38.886
		C100.348,131.657,94.261,131.521,90.022,133.016 M95.942,134.958c5.93,2.274,1.536,30.579-5.847,37.663
		c-8.014,7.689-11.278-4.968-6.01-23.308C86.857,139.663,91.994,133.443,95.942,134.958 M59.672,142.945
		c3.025,3.22,1.131,13.583-2.612,14.291c-0.751,0.143-2.344,0.481-3.538,0.753c-1.195,0.273-2.263,0.404-2.374,0.293
		c-0.233-0.231,3.067-15.411,3.504-16.118C55.257,141.184,58.491,141.687,59.672,142.945 M26.196,147.639
		c6.306,2.397,0.931,20.679-6.756,22.981c-2.953,0.886-2.945,1.29-0.219-11.104c1.353-6.149,2.459-11.311,2.459-11.469
		c0-0.287,1.328-0.729,2.55-0.849C24.585,147.165,25.47,147.363,26.196,147.639"/>
	<path id="path4" fill="#A1C5A3" d="M190.252,0.582c0.673,0.131,1.775,0.131,2.449,0c0.673-0.13,0.122-0.235-1.225-0.235
		S189.578,0.452,190.252,0.582 M210.932,0.582c0.674,0.131,1.775,0.131,2.449,0c0.674-0.13,0.122-0.235-1.225-0.235
		C210.811,0.346,210.259,0.452,210.932,0.582 M192.156,21.798c0.524,0.137,1.381,0.137,1.905,0c0.524-0.138,0.095-0.249-0.952-0.249
		C192.061,21.549,191.633,21.661,192.156,21.798 M209.57,21.798c0.525,0.137,1.382,0.137,1.906,0
		c0.523-0.138,0.094-0.249-0.953-0.249S209.048,21.661,209.57,21.798 M89.163,39.427l-2.449,2.22l2.585-2.014
		c2.266-1.768,2.938-2.433,2.449-2.428C91.673,37.207,90.51,38.207,89.163,39.427 M311.748,37.366c0,0.139,1.152,1.196,2.561,2.35
		c1.407,1.153,2.383,1.813,2.168,1.466C316.02,40.441,311.748,36.995,311.748,37.366 M79.912,47.273
		c-1.322,1.347-2.281,2.449-2.132,2.449c0.15,0,1.354-1.103,2.676-2.449c1.322-1.347,2.281-2.449,2.131-2.449
		C82.438,44.824,81.233,45.926,79.912,47.273 M323.154,47.137c2.255,2.402,2.744,2.835,2.744,2.426c0-0.087-1.164-1.251-2.586-2.585
		l-2.584-2.426L323.154,47.137 M73.619,53.123l-1.599,1.77l1.769-1.599c0.973-0.88,1.769-1.676,1.769-1.769
		C75.558,51.104,75.109,51.474,73.619,53.123 M328.075,51.525c0,0.093,0.796,0.889,1.769,1.769l1.768,1.599l-1.598-1.77
		C328.523,51.474,328.075,51.104,328.075,51.525 M67.939,59.246c-1.322,1.348-2.281,2.449-2.132,2.449
		c0.15,0,1.354-1.102,2.676-2.449c1.322-1.347,2.281-2.448,2.131-2.448C70.465,56.797,69.261,57.899,67.939,59.246 M335.127,59.11
		c1.334,1.421,2.498,2.585,2.585,2.585c0.409,0-0.022-0.489-2.426-2.744l-2.585-2.426L335.127,59.11 M88.891,68.225
		c-3.582,3.592-6.391,6.531-6.241,6.531c0.149,0,3.203-2.939,6.785-6.531c3.583-3.592,6.392-6.53,6.242-6.53
		C95.527,61.695,92.474,64.633,88.891,68.225 M314.197,68.225c3.582,3.592,6.636,6.531,6.785,6.531c0.15,0-2.658-2.939-6.241-6.531
		c-3.582-3.592-6.636-6.53-6.785-6.53S310.615,64.633,314.197,68.225 M61.081,67.273c-2.384,2.749-3.092,3.673-2.816,3.673
		c0.16,0,1.194-1.102,2.298-2.449C62.607,66.003,63.012,65.045,61.081,67.273 M342.979,68.387c1.154,1.407,2.211,2.559,2.351,2.559
		c0.371,0-3.075-4.271-3.815-4.729C341.166,66.003,341.826,66.979,342.979,68.387 M354.333,88.736c0.524,0.137,1.381,0.137,1.905,0
		c0.523-0.136,0.095-0.248-0.952-0.248C354.238,88.488,353.811,88.6,354.333,88.736 M343.551,90.674l-1.599,1.769l1.769-1.599
		c0.973-0.879,1.77-1.675,1.77-1.769C345.49,88.655,345.041,89.026,343.551,90.674 M363.598,93.259c0,1.347,0.105,1.897,0.235,1.225
		c0.13-0.674,0.13-1.775,0-2.449S363.598,91.912,363.598,93.259 M288.211,97.453c0.673,0.131,1.775,0.131,2.449,0
		c0.673-0.13,0.122-0.235-1.225-0.235C288.088,97.217,287.537,97.323,288.211,97.453 M377.469,101.807
		c0.678,0.131,1.656,0.126,2.178-0.011c0.52-0.137-0.035-0.242-1.231-0.236C377.218,101.566,376.792,101.677,377.469,101.807
		 M296.646,105.504c0.006,1.196,0.119,1.623,0.248,0.945c0.131-0.677,0.125-1.655-0.011-2.177
		C296.748,103.753,296.641,104.307,296.646,105.504 M322.759,106.865c0,1.047,0.112,1.477,0.249,0.952
		c0.137-0.523,0.137-1.381,0-1.905C322.871,105.388,322.759,105.817,322.759,106.865 M232.475,110.938
		c0,0.649,0.168,0.679,0.861,0.154c0.475-0.36,0.963-0.724,1.088-0.809s-0.263-0.153-0.861-0.153
		C232.963,110.13,232.475,110.493,232.475,110.938 M363.042,115.3c0.006,1.196,0.117,1.623,0.248,0.945
		c0.13-0.677,0.125-1.655-0.011-2.177C363.143,113.549,363.036,114.103,363.042,115.3 M389.709,119.11
		c0.006,1.197,0.117,1.623,0.247,0.946c0.131-0.677,0.126-1.657-0.011-2.177C389.809,117.358,389.703,117.912,389.709,119.11
		 M172.302,118.143c0.978,0.122,2.448,0.119,3.266-0.005c0.817-0.124,0.017-0.224-1.779-0.22
		C171.993,117.921,171.324,118.022,172.302,118.143 M396.802,122.919c0.005,1.497,0.11,2.044,0.235,1.217s0.122-2.052-0.008-2.722
		C396.9,120.746,396.798,121.422,396.802,122.919 M206.852,124.008c0.006,1.196,0.117,1.623,0.248,0.945
		c0.129-0.677,0.125-1.656-0.012-2.177C206.952,122.256,206.846,122.81,206.852,124.008 M158.517,124.417l-1.599,1.768l1.769-1.598
		c1.649-1.49,2.019-1.939,1.598-1.939C160.192,122.647,159.396,123.443,158.517,124.417 M119.776,124.655
		c0.523,0.138,1.38,0.138,1.904,0c0.524-0.137,0.096-0.249-0.952-0.249S119.252,124.518,119.776,124.655 M192.176,126.729
		c0.004,1.496,0.11,2.044,0.235,1.217c0.125-0.828,0.122-2.052-0.008-2.721C192.274,124.555,192.172,125.232,192.176,126.729
		 M305.932,127.273c0.002,1.796,0.104,2.465,0.225,1.487c0.121-0.979,0.119-2.448-0.006-3.267
		C306.027,124.677,305.927,125.477,305.932,127.273 M263.492,128.905c0.002,2.097,0.1,2.887,0.218,1.757
		c0.118-1.129,0.116-2.843-0.004-3.809C263.585,125.886,263.489,126.81,263.492,128.905 M266.213,128.905
		c0.002,2.097,0.1,2.887,0.219,1.757c0.117-1.129,0.115-2.843-0.005-3.809C266.307,125.886,266.21,126.81,266.213,128.905
		 M308.62,127.273c0.006,1.197,0.118,1.623,0.248,0.946s0.125-1.657-0.011-2.177C308.721,125.522,308.614,126.076,308.62,127.273
		 M149.164,128.361c0.006,1.198,0.118,1.623,0.248,0.946s0.125-1.656-0.011-2.177C149.265,126.61,149.158,127.164,149.164,128.361
		 M120.054,127.386c0.677,0.13,1.657,0.125,2.177-0.011c0.52-0.138-0.034-0.243-1.231-0.237S119.377,127.255,120.054,127.386
		 M274.879,128.905c0.006,1.198,0.117,1.623,0.247,0.947c0.131-0.677,0.126-1.657-0.011-2.177
		C274.979,127.154,274.873,127.708,274.879,128.905 M184.57,131.627c0.003,1.795,0.105,2.465,0.226,1.485
		c0.121-0.978,0.118-2.446-0.006-3.265S184.567,129.831,184.57,131.627 M187.286,131.899c0,1.646,0.102,2.319,0.226,1.496
		c0.125-0.823,0.125-2.17,0-2.993C187.388,129.579,187.286,130.252,187.286,131.899 M322.326,132.579l-1.598,1.77l1.769-1.6
		c0.972-0.879,1.769-1.675,1.769-1.768C324.266,130.56,323.816,130.93,322.326,132.579 M95.558,131.739
		c0.673,0.129,1.775,0.129,2.449,0c0.673-0.13,0.122-0.235-1.225-0.235C95.435,131.503,94.884,131.609,95.558,131.739
		 M89.945,137.477l-1.598,1.769l1.769-1.599c1.648-1.49,2.019-1.938,1.598-1.938C91.62,135.708,90.824,136.504,89.945,137.477
		 M380.027,138.565l-2.7,2.857l2.856-2.7c2.655-2.51,3.106-3.014,2.7-3.014C382.798,135.708,381.514,136.994,380.027,138.565
		 M58.823,138.275c0.823,0.125,2.17,0.125,2.993,0c0.823-0.125,0.15-0.227-1.496-0.227C58.673,138.048,58,138.15,58.823,138.275
		 M280.864,138.804c0.524,0.137,1.381,0.137,1.905,0c0.523-0.136,0.095-0.248-0.953-0.248
		C280.77,138.556,280.34,138.668,280.864,138.804 M306.441,138.819c0.824,0.125,2.17,0.125,2.994,0
		c0.823-0.125,0.149-0.227-1.496-0.227C306.293,138.592,305.619,138.694,306.441,138.819 M215.585,141.695
		c0,1.646,0.103,2.319,0.228,1.496c0.123-0.823,0.123-2.17,0-2.993C215.688,139.375,215.585,140.048,215.585,141.695
		 M243.848,141.695c0,1.047,0.111,1.477,0.248,0.952s0.137-1.381,0-1.905C243.959,140.218,243.848,140.647,243.848,141.695
		 M246.568,141.695c0,1.047,0.111,1.477,0.248,0.952c0.138-0.524,0.138-1.381,0-1.905
		C246.68,140.218,246.568,140.647,246.568,141.695 M98.552,143.055c0.006,1.197,0.118,1.623,0.248,0.946
		c0.13-0.678,0.125-1.656-0.011-2.178C98.653,141.304,98.546,141.858,98.552,143.055 M107.309,145.776
		c0.002,2.396,0.098,3.308,0.213,2.027c0.115-1.28,0.113-3.24-0.004-4.354C107.401,142.334,107.307,143.382,107.309,145.776
		 M25.363,144.266c0.979,0.121,2.448,0.119,3.266-0.006c0.818-0.124,0.017-0.224-1.779-0.221
		C25.054,144.043,24.385,144.145,25.363,144.266 M222.66,147.137c0,1.646,0.102,2.319,0.227,1.496s0.125-2.17,0-2.993
		S222.66,145.491,222.66,147.137 M61.001,147.409c0.006,1.197,0.118,1.623,0.248,0.946s0.125-1.657-0.011-2.177
		C61.102,145.658,60.995,146.212,61.001,147.409 M149.709,149.042c0.006,1.196,0.117,1.622,0.247,0.945
		c0.131-0.677,0.126-1.657-0.011-2.177C149.809,147.29,149.703,147.844,149.709,149.042 M252.02,148.6
		c0.524,0.137,1.381,0.137,1.905,0s0.095-0.249-0.952-0.249C251.925,148.351,251.497,148.463,252.02,148.6 M210.217,153.259
		l-1.598,1.769l1.77-1.598c1.647-1.49,2.019-1.939,1.598-1.939C211.893,151.491,211.098,152.286,210.217,153.259 M37.013,155.181
		c0.09,2.917,0.109,2.96,0.31,0.672c0.118-1.342,0.463-2.593,0.767-2.781c0.324-0.2,0.196-0.478-0.31-0.672
		C37.05,152.119,36.933,152.543,37.013,155.181 M158.405,153.667c0,1.048,0.112,1.477,0.249,0.952c0.137-0.523,0.137-1.381,0-1.904
		C158.517,152.191,158.405,152.62,158.405,153.667 M149.698,154.212c0,1.047,0.112,1.476,0.249,0.951
		c0.136-0.523,0.136-1.381,0-1.904C149.81,152.735,149.698,153.164,149.698,154.212 M7.224,156.525l-1.598,1.769l1.769-1.599
		c0.972-0.879,1.768-1.675,1.768-1.769C9.163,154.506,8.714,154.876,7.224,156.525 M119.221,158.021
		c0,1.048,0.112,1.476,0.249,0.953c0.137-0.524,0.137-1.381,0-1.905C119.333,156.545,119.221,156.974,119.221,158.021
		 M72.471,165.368c0.003,2.096,0.101,2.887,0.219,1.758c0.117-1.13,0.116-2.845-0.005-3.811
		C72.565,162.349,72.469,163.273,72.471,165.368 M50.524,164.76c0,0.115,0.612,0.326,1.36,0.469
		c0.749,0.143,1.361,0.049,1.361-0.209c0-0.257-0.612-0.468-1.361-0.468C51.136,164.552,50.524,164.646,50.524,164.76
		 M275.422,167.104c0.523,0.137,1.381,0.137,1.905,0c0.522-0.137,0.095-0.249-0.953-0.249
		C275.327,166.855,274.898,166.967,275.422,167.104 M269.436,167.648c0.523,0.137,1.381,0.137,1.904,0
		c0.524-0.137,0.096-0.249-0.951-0.249C269.34,167.399,268.912,167.511,269.436,167.648 M262.639,168.202
		c0.678,0.13,1.657,0.125,2.178-0.011c0.52-0.136-0.034-0.243-1.231-0.237C262.389,167.96,261.962,168.072,262.639,168.202
		 M255.564,168.746c0.677,0.131,1.656,0.125,2.177-0.011c0.52-0.136-0.034-0.243-1.231-0.236S254.887,168.616,255.564,168.746
		 M382.102,170.538c0,1.348,0.105,1.898,0.234,1.226c0.13-0.674,0.13-1.776,0-2.449C382.207,168.64,382.102,169.191,382.102,170.538
		 M135.021,169.296c0.827,0.125,2.052,0.122,2.721-0.008c0.67-0.13-0.007-0.231-1.504-0.228
		C134.741,169.065,134.194,169.171,135.021,169.296 M247.945,169.29c0.677,0.132,1.656,0.127,2.177-0.011
		c0.521-0.136-0.034-0.242-1.231-0.235C247.693,169.049,247.268,169.16,247.945,169.29 M239.775,169.834
		c0.674,0.129,1.775,0.129,2.449,0c0.674-0.131,0.123-0.236-1.225-0.236S239.102,169.704,239.775,169.834 M231.611,170.378
		c0.675,0.13,1.777,0.13,2.449,0c0.674-0.131,0.123-0.236-1.224-0.236S230.939,170.248,231.611,170.378 M222.911,170.923
		c0.677,0.13,1.657,0.125,2.177-0.012c0.52-0.136-0.033-0.242-1.23-0.236S222.234,170.793,222.911,170.923 M360.854,172.171
		c0,1.047,0.112,1.476,0.25,0.951c0.137-0.523,0.137-1.381,0-1.904C360.966,170.695,360.854,171.123,360.854,172.171
		 M69.809,172.851l-1.598,1.769l1.769-1.599c1.648-1.49,2.018-1.939,1.598-1.939C71.484,171.082,70.688,171.878,69.809,172.851
		 M214.748,171.467c0.677,0.13,1.656,0.125,2.177-0.012c0.521-0.136-0.034-0.241-1.231-0.235
		C214.497,171.226,214.07,171.337,214.748,171.467 M207.129,172.011c0.678,0.131,1.656,0.126,2.178-0.011
		c0.52-0.137-0.035-0.242-1.231-0.236C206.878,171.77,206.452,171.881,207.129,172.011 M200.055,172.556
		c0.676,0.13,1.656,0.125,2.176-0.011c0.521-0.138-0.033-0.243-1.23-0.237C199.803,172.314,199.377,172.426,200.055,172.556
		 M193.245,173.09c0.524,0.137,1.381,0.137,1.905,0c0.523-0.138,0.095-0.249-0.953-0.249
		C193.15,172.841,192.721,172.953,193.245,173.09 M186.714,173.634c0.524,0.137,1.381,0.137,1.905,0
		c0.524-0.138,0.095-0.249-0.952-0.249C186.619,173.385,186.19,173.497,186.714,173.634 M360.854,189.586
		c0,1.047,0.112,1.477,0.25,0.951c0.137-0.523,0.137-1.381,0-1.904C360.966,188.109,360.854,188.537,360.854,189.586
		 M21.284,191.219c0,1.346,0.106,1.896,0.236,1.225c0.13-0.674,0.13-1.775,0-2.449S21.284,189.871,21.284,191.219 M382.102,191.219
		c0,1.346,0.105,1.896,0.234,1.225c0.13-0.674,0.13-1.775,0-2.449C382.207,189.32,382.102,189.871,382.102,191.219 M32.987,242.23
		c1.28,0.115,3.239,0.113,4.354-0.004c1.114-0.117,0.067-0.211-2.327-0.209C32.619,242.02,31.707,242.115,32.987,242.23
		 M57.599,250.266c1.015,1.049,1.968,1.906,2.118,1.906c0.15,0-0.559-0.857-1.574-1.906c-1.016-1.047-1.969-1.904-2.118-1.904
		C55.875,248.361,56.583,249.219,57.599,250.266 M244.4,254.18c0.524,0.135,1.382,0.135,1.906,0c0.523-0.137,0.094-0.25-0.953-0.25
		S243.878,254.043,244.4,254.18 M174.197,263.975c0.524,0.137,1.381,0.137,1.905,0s0.095-0.248-0.952-0.248
		C174.102,263.727,173.673,263.838,174.197,263.975 M88.891,293.531c3.583,3.592,6.636,6.531,6.786,6.531
		c0.15,0-2.659-2.939-6.242-6.531c-3.582-3.592-6.636-6.529-6.785-6.529C82.5,287.002,85.309,289.939,88.891,293.531
		 M314.197,293.531c-3.582,3.592-6.391,6.531-6.241,6.531s3.203-2.939,6.785-6.531c3.583-3.592,6.392-6.529,6.241-6.529
		C320.833,287.002,317.779,289.939,314.197,293.531 M59.77,292.98c0.945,1.193,2.002,2.344,2.349,2.559
		c0.348,0.215-0.312-0.762-1.466-2.17c-1.153-1.406-2.211-2.559-2.349-2.559C58.165,290.811,58.825,291.785,59.77,292.98
		 M342.979,293.369c-1.152,1.408-1.813,2.385-1.465,2.17c0.74-0.457,4.187-4.729,3.815-4.729
		C345.189,290.811,344.133,291.963,342.979,293.369 M67.916,302.375c1.334,1.422,2.498,2.586,2.585,2.586
		c0.409,0-0.023-0.49-2.426-2.744l-2.585-2.426L67.916,302.375 M335.15,302.512c-1.322,1.346-2.281,2.449-2.133,2.449
		c0.15,0,1.354-1.104,2.676-2.449c1.322-1.348,2.281-2.449,2.132-2.449S336.473,301.164,335.15,302.512 M72.293,307.307
		c0,0.094,0.795,0.891,1.768,1.77l1.769,1.598l-1.598-1.77C72.742,307.258,72.293,306.887,72.293,307.307 M329.4,308.904
		l-1.598,1.77l1.768-1.598c0.974-0.879,1.77-1.676,1.77-1.77C331.34,306.887,330.891,307.258,329.4,308.904 M79.889,314.348
		c1.334,1.422,2.498,2.586,2.585,2.586c0.409,0-0.024-0.49-2.426-2.744l-2.585-2.426L79.889,314.348 M323.177,314.484
		c-1.321,1.348-2.28,2.449-2.132,2.449c0.15,0,1.354-1.102,2.676-2.449s2.281-2.449,2.131-2.449
		C325.703,312.035,324.499,313.137,323.177,314.484 M87.155,320.576c0.458,0.74,4.729,4.186,4.729,3.814
		c0-0.139-1.152-1.195-2.559-2.35C87.917,320.889,86.941,320.229,87.155,320.576 M313.925,322.449l-2.448,2.219l2.306-1.73
		c2.005-1.506,3.292-2.773,2.76-2.723C316.45,320.223,315.271,321.229,313.925,322.449 M192.156,340.166
		c0.524,0.137,1.381,0.137,1.905,0c0.524-0.139,0.095-0.25-0.952-0.25C192.061,339.916,191.633,340.027,192.156,340.166
		 M209.57,340.166c0.525,0.137,1.382,0.137,1.906,0c0.523-0.139,0.094-0.25-0.953-0.25S209.048,340.027,209.57,340.166
		 M190.252,361.398c0.673,0.129,1.775,0.129,2.449,0c0.673-0.129,0.122-0.234-1.225-0.234S189.578,361.27,190.252,361.398
		 M210.932,361.398c0.674,0.129,1.775,0.129,2.449,0s0.122-0.234-1.225-0.234C210.811,361.164,210.259,361.27,210.932,361.398
		 M1,0.198"/>
	<path id="path5" fill="#2576B7" d="M178.551,6.559c-1.871,0.122-3.401,0.455-3.401,0.74s-1.298,0.518-2.885,0.518
		c-1.586,0-3.117,0.22-3.401,0.489c-0.284,0.268-1.497,0.616-2.694,0.771c-1.197,0.155-3.279,0.565-4.626,0.91
		c-1.347,0.346-4.121,0.918-6.164,1.272c-2.044,0.354-3.534,0.828-3.311,1.05c0.223,0.223-0.493,0.405-1.591,0.405
		c-1.097,0-1.995,0.245-1.995,0.544c0,0.3-0.735,0.544-1.633,0.544s-1.632,0.245-1.632,0.545c0,0.299-0.613,0.544-1.361,0.544
		s-1.36,0.245-1.36,0.544s-0.613,0.544-1.361,0.544c-0.748,0-1.36,0.245-1.36,0.545c0,0.299-0.598,0.544-1.329,0.544
		c-0.731,0-1.48,0.245-1.665,0.544c-0.185,0.299-0.811,0.544-1.392,0.544s-1.057,0.245-1.057,0.544c0,0.301-0.37,0.545-0.823,0.545
		c-0.453,0-1.249,0.225-1.769,0.498c-2.172,1.146-4.977,2.224-5.789,2.224c-0.479,0-0.87,0.245-0.87,0.544s-0.49,0.544-1.089,0.544
		c-0.598,0-1.088,0.245-1.088,0.544c0,0.3-0.504,0.545-1.121,0.545c-0.616,0-0.969,0.244-0.784,0.544
		c0.185,0.299-0.168,0.544-0.784,0.544c-0.617,0-1.121,0.245-1.121,0.544c0,0.3-0.49,0.544-1.088,0.544
		c-0.599,0-1.089,0.245-1.089,0.545c0,0.299-0.367,0.544-0.816,0.544c-0.449,0-0.818,0.185-0.821,0.408
		c-0.002,0.226-0.553,0.678-1.224,1.008c-3.803,1.869-7.23,3.797-7.388,4.157c-0.1,0.228-0.528,0.413-0.952,0.413
		c-0.424,0-0.771,0.245-0.771,0.544c0,0.3-0.314,0.545-0.697,0.545s-1.049,0.49-1.48,1.088c-0.432,0.6-0.973,1.089-1.203,1.089
		s-1.867,1.103-3.638,2.449s-3.488,2.449-3.816,2.449c-0.327,0-0.595,0.244-0.595,0.544c0,0.299-0.382,0.544-0.848,0.544
		c-0.467,0-0.698,0.245-0.513,0.544c0.185,0.3,0.069,0.544-0.258,0.544s-1.409,0.796-2.405,1.77
		c-0.997,0.973-2.851,2.608-4.122,3.636c-2.778,2.246-15.192,14.671-16.344,16.357c-0.983,1.441-2.183,2.87-4.69,5.584
		c-1.036,1.123-1.741,2.041-1.565,2.041c0.175,0-0.305,0.624-1.067,1.386c-0.762,0.762-1.385,1.581-1.385,1.82
		s-0.612,1.146-1.36,2.017c-0.748,0.869-1.36,1.86-1.361,2.203c0,0.342-0.379,0.767-0.842,0.944c-0.464,0.179-1.1,1.062-1.414,1.963
		c-0.315,0.902-0.781,1.641-1.036,1.641c-0.255,0-1.026,1.224-1.712,2.721c-0.687,1.497-1.434,2.721-1.66,2.721
		s-0.411,0.367-0.411,0.816s-0.215,0.817-0.478,0.817c-0.263,0-0.783,0.733-1.155,1.632c-0.372,0.897-0.891,1.633-1.154,1.633
		c-0.263,0-0.478,0.49-0.478,1.089c0,0.598-0.245,1.088-0.545,1.088c-0.299,0-0.544,0.469-0.544,1.043s-0.184,1.125-0.408,1.226
		c-0.71,0.314-2.871,4.888-2.553,5.402c0.167,0.271,0.045,0.492-0.272,0.492s-0.576,0.322-0.576,0.714
		c0,0.394-0.49,1.729-1.089,2.967c-0.599,1.239-1.088,2.511-1.088,2.824s-0.201,0.57-0.446,0.57c-0.245,0-0.779,1.225-1.187,2.721
		c-0.408,1.497-0.942,2.722-1.187,2.722c-0.245,0-0.446,0.598-0.446,1.328s-0.245,1.479-0.544,1.664
		c-0.299,0.186-0.544,0.936-0.544,1.665c0,0.731-0.245,1.329-0.544,1.329c-0.3,0-0.545,0.734-0.545,1.632
		c0,0.898-0.244,1.634-0.544,1.634c-0.299,0-0.544,0.734-0.544,1.633c0,0.897-0.2,1.632-0.444,1.632s-0.719,1.653-1.057,3.674
		c-0.337,2.021-0.777,4.466-0.977,5.437c-0.295,1.425-0.171,1.831,0.649,2.121c0.557,0.196,1.792,0.935,2.745,1.639
		c1.679,1.24,1.742,1.247,2.07,0.214c0.389-1.226,4.737-3.826,8.743-5.227l2.75-0.962l2.341-7.12
		C74.953,56.12,150.532,10.721,228.482,23.657c42.17,6.998,81.842,32.409,105.123,67.336c1.529,2.294,2.97,4.381,3.199,4.638
		c0.231,0.256,0.92-0.666,1.533-2.052c1.254-2.835,5.667-7.417,8.124-8.435c1.827-0.757,1.847-2.359,0.042-3.486
		c-0.559-0.348-1.015-0.881-1.015-1.183s-0.612-1.261-1.36-2.13c-0.748-0.87-1.359-1.777-1.359-2.017s-0.625-1.059-1.387-1.82
		c-0.761-0.762-1.24-1.386-1.066-1.386c0.176,0-0.528-0.918-1.565-2.041c-2.506-2.714-3.706-4.143-4.69-5.584
		c-1.15-1.687-13.565-14.111-16.344-16.357c-1.27-1.027-3.125-2.663-4.121-3.636c-0.996-0.974-2.078-1.77-2.406-1.77
		c-0.326,0-0.442-0.244-0.258-0.544c0.186-0.299-0.045-0.544-0.512-0.544s-0.85-0.245-0.85-0.544c0-0.3-0.268-0.544-0.594-0.544
		c-0.328,0-2.045-1.103-3.816-2.449s-3.408-2.449-3.639-2.449c-0.229,0-0.771-0.489-1.201-1.089
		c-0.432-0.598-1.098-1.088-1.481-1.088c-0.383,0-0.696-0.245-0.696-0.545c0-0.299-0.347-0.544-0.771-0.544
		s-0.853-0.186-0.952-0.413c-0.159-0.36-3.586-2.288-7.389-4.157c-0.672-0.33-1.223-0.782-1.225-1.008
		c-0.002-0.224-0.371-0.408-0.82-0.408s-0.816-0.245-0.816-0.544c0-0.3-0.49-0.545-1.088-0.545c-0.6,0-1.089-0.244-1.089-0.544
		c0-0.299-0.504-0.544-1.12-0.544c-0.617,0-0.971-0.245-0.785-0.544c0.186-0.3-0.167-0.544-0.783-0.544
		c-0.617,0-1.121-0.245-1.121-0.545c0-0.299-0.49-0.544-1.088-0.544c-0.599,0-1.089-0.245-1.089-0.544s-0.392-0.544-0.87-0.544
		c-0.812,0-3.617-1.077-5.789-2.224c-0.52-0.273-1.315-0.498-1.769-0.498s-0.824-0.244-0.824-0.545c0-0.299-0.476-0.544-1.056-0.544
		c-0.581,0-1.208-0.245-1.393-0.544c-0.186-0.299-0.935-0.544-1.666-0.544c-0.729,0-1.328-0.245-1.328-0.544
		c0-0.3-0.611-0.545-1.36-0.545c-0.748,0-1.36-0.245-1.36-0.544s-0.611-0.544-1.361-0.544c-0.748,0-1.359-0.245-1.359-0.544
		c0-0.3-0.735-0.545-1.633-0.545c-0.898,0-1.633-0.244-1.633-0.544c0-0.299-0.898-0.544-1.996-0.544s-1.813-0.183-1.59-0.405
		c0.223-0.222-1.268-0.695-3.311-1.05c-2.044-0.354-4.818-0.927-6.165-1.272c-1.347-0.345-3.428-0.755-4.626-0.91
		c-1.197-0.155-2.409-0.504-2.693-0.771c-0.285-0.27-1.795-0.489-3.356-0.489c-1.787,0-2.923-0.252-3.065-0.68
		C227.579,6.465,187.256,5.992,178.551,6.559 M183.354,60.093c-33.859,5.12-63.923,24.275-83.23,53.029
		c-4.346,6.473-9.831,16.908-8.648,16.454c10.34-3.968,18.679,3.425,18.58,16.472c-0.156,20.618-11.368,35.295-27.015,35.36
		l-3.129,0.014v3.595c0,2.654,0.178,3.527,0.68,3.336c7.09-2.721,45.252-10.295,65.169-12.937c5.53-0.733,4.794-0.068,5.944-5.367
		l0.952-4.389l-1.324-1.234c-1.935-1.807-3.402-4.984-4.137-8.967l-0.647-3.508l-1.12,4.6l-1.12,4.599h1.311
		c4.724,0,3.061,7.843-2.036,9.607c-10.25,3.548-16.889,0.04-19.652-10.386c-1.271-4.792-1.273-4.796-1.663-2.623
		c-0.868,4.843-0.581,7.348,0.841,7.348c4.832,0,2.878,8.344-2.29,9.779c-6.93,1.925-12.065-0.827-12.065-6.466
		c0-2.156,5.319-25.351,7.406-32.294c0.208-0.691-0.021-0.952-0.839-0.952c-2.471,0-4.677-5.048-3.317-7.59
		c1.392-2.601,10.353-3.938,13.893-2.073c3.984,2.098,5.603,4.954,7.85,13.854c2.476,9.809,2.451,9.79,3.236,2.514
		c0.382-3.537,0.833-7.473,1.001-8.745c0.27-2.045,0.181-2.313-0.772-2.313c-1.941,0-3.068-1.867-2.662-4.408
		c0.548-3.424,1.184-4.188,4.244-5.097c6.846-2.033,12.099,0.021,13.23,5.174l0.353,1.605l2.371-3.128
		c10.357-13.653,29.702-12.898,32.103,1.254c0.952,5.607,2.538,5.753,2.693,0.246c0.333-11.792,14.516-21.254,24.301-16.214
		l2.504,1.29l0.838-1.461c1.967-3.425,9.097-5.928,16.883-5.928c5.935,0,11.854-0.868,15.093-2.214
		c3.927-1.63,17.103-3.757,18.618-3.005c2.486,1.231,1.471,8.063-1.303,8.763c-1.174,0.297-8.086,29.25-7.197,30.152
		c0.123,0.125,1.105-0.732,2.184-1.905l1.961-2.132l0.176-5.986c0.477-16.231,9.182-29.858,20.726-32.441
		c3.989-0.894,3.989-0.967-0.032-4.729C258.396,66.421,219.454,54.633,183.354,60.093 M351.543,93.313
		c-1.445,1.551-1.863,3.529-1.057,4.991c0.628,1.135,0.695,1.051,1.048-1.306c0.208-1.385,0.655-3.037,0.995-3.674
		C353.316,91.855,352.906,91.85,351.543,93.313 M283.159,107.882c-4.095,6.187-6.653,21.712-4.322,26.221
		c1.672,3.232,7.578,1.669,10.429-2.761c2.416-3.753,2.959-4.341,4.004-4.341c0.924,0,1.063-0.387,1.063-2.926
		c0-1.608,0.156-3.706,0.347-4.661l0.348-1.734l-2.055,1.395c-7.32,4.969-13.867-4.141-8.673-12.066
		c0.444-0.679,0.683-1.232,0.53-1.232C284.677,105.776,283.926,106.724,283.159,107.882 M240.732,115.682
		c-0.141,0.389-1.33,5.77-2.645,11.958l-2.39,11.252l5.78,5.905c5.893,6.021,9.03,10.654,11.807,17.438l1.281,3.133l5.326-0.085
		c11.151-0.177,56.709-5.348,61.476-6.978c0.746-0.255,0.046-3.71-2.612-12.893l-1.681-5.806l-2.255,0.852
		c-5.81,2.192-13.612,0.803-16.748-2.984l-1.271-1.535l-3.24,3.465c-6.889,7.363-17.9,9.963-23.998,5.666l-2.322-1.637l-2.1,2.151
		c-7.814,8.007-18.553,7.396-20.888-1.188c-0.591-2.173,2.297-19.246,4.713-27.861c0.222-0.789-0.075-0.924-1.81-0.826
		c-1.141,0.063-2.996-0.075-4.122-0.309C241.539,115.09,240.917,115.167,240.732,115.682 M348.909,119.142
		c1.834,4.394,3.11,4.591,3.11,0.479c0-1.518-3.065-4.594-4.578-4.594C347.305,115.028,347.964,116.879,348.909,119.142
		 M221.658,120.745c-1.934,2.071-3.516,4.024-3.516,4.341c0,0.315-0.621,1.488-1.379,2.605c-1.269,1.866-1.298,2.031-0.354,2.031
		c0.564,0,2.152,0.599,3.529,1.331c2.933,1.559,2.459,2.303,4.451-6.992C226.088,116.139,226.027,116.065,221.658,120.745
		 M204.055,119.699c-0.644,0.819-1.15,2.254-1.15,3.262c0,2.015,1.076,3.189,1.113,1.216c0.012-0.691,0.369-2.228,0.791-3.413
		C205.758,118.098,205.548,117.801,204.055,119.699 M365.227,120.087c-1.277,4.292-5.078,9.026-9.918,12.355l-1.188,0.816
		l1.604,5.715c0.881,3.142,1.776,6.755,1.99,8.027c0.467,2.788-0.074,2.781,5.338,0.064c7.588-3.81,9.274-5.182,8.854-7.202
		c-0.196-0.938-0.633-3.359-0.971-5.38c-0.336-2.021-0.813-3.674-1.057-3.674s-0.443-0.734-0.443-1.632
		c0-0.898-0.246-1.633-0.545-1.633s-0.543-0.735-0.543-1.634c0-0.897-0.246-1.632-0.545-1.632c-0.3,0-0.544-0.563-0.544-1.252
		s-0.225-1.483-0.499-1.769c-0.273-0.284-0.593-1.129-0.708-1.877C365.863,118.162,365.777,118.235,365.227,120.087
		 M309.182,126.995c0.127,4.976,0.659,5.75,2.85,4.146c1.058-0.776,1.039-0.865-0.944-4.778l-2.022-3.986L309.182,126.995
		 M168.985,125.9c-2.847,3.383-5.627,11.101-6.606,18.338l-0.381,2.815l3.174-3.112c1.746-1.712,4.084-3.836,5.195-4.72
		c1.979-1.576,2.027-1.703,2.383-6.317C173.388,124.642,172.084,122.217,168.985,125.9 M92.12,139.337
		c-5.541,5.978-10.699,32.834-6.307,32.834c4.029,0,8.859-12.92,9.687-25.911C96.027,137.986,95.111,136.109,92.12,139.337
		 M219.452,153.18c-1.952,2.157-9.862,7.012-19.861,12.191l-10.02,5.19l3.538-0.301c7.649-0.651,8.966-0.926,12.18-2.542
		c10.865-5.461,18.505-12.212,16.361-14.457l-1.168-1.221L219.452,153.18 M371.884,160.797c-1.495,0.896-4.577,2.582-6.847,3.741
		l-4.127,2.11l0.251,10.009c2.782,111.079-105.347,190.706-210.773,155.217c-36.245-12.201-71.118-41.188-87.675-72.873
		c-0.867-1.66-1.946-3.02-2.397-3.02c-0.45-0.002-2.069-1.297-3.595-2.879c-4.096-4.242-12.094-7.957-17.228-8
		c-1.005-0.008-0.804,2.76,0.231,3.168c0.253,0.098,0.46,0.416,0.46,0.705s0.489,1.539,1.088,2.779
		c0.599,1.238,1.089,2.572,1.089,2.967c0,0.393,0.259,0.713,0.576,0.713s0.439,0.223,0.272,0.494
		c-0.318,0.514,1.843,5.086,2.553,5.402c0.224,0.1,0.408,0.65,0.408,1.225s0.245,1.043,0.544,1.043c0.3,0,0.545,0.49,0.545,1.088
		s0.215,1.088,0.478,1.088c0.263,0,0.782,0.736,1.154,1.633c0.372,0.898,0.892,1.635,1.155,1.635c0.263,0,0.478,0.365,0.478,0.814
		s0.185,0.816,0.411,0.816s0.973,1.225,1.66,2.721c0.686,1.498,1.457,2.721,1.712,2.721c0.255,0,0.721,0.738,1.036,1.641
		c0.314,0.902,0.95,1.785,1.414,1.963c0.463,0.178,0.842,0.604,0.842,0.945c0.001,0.344,0.613,1.334,1.361,2.203
		s1.36,1.777,1.36,2.018c0,0.238,0.623,1.057,1.385,1.818c0.762,0.764,1.242,1.387,1.067,1.387c-0.176,0,0.529,0.918,1.565,2.041
		c2.507,2.715,3.707,4.143,4.69,5.584c1.152,1.688,13.566,14.111,16.344,16.357c1.271,1.027,3.125,2.662,4.122,3.637
		c0.996,0.973,2.078,1.768,2.405,1.768s0.443,0.246,0.258,0.545c-0.185,0.299,0.046,0.543,0.513,0.543
		c0.466,0,0.848,0.246,0.848,0.545c0,0.301,0.268,0.545,0.595,0.545c0.328,0,2.045,1.102,3.816,2.449s3.408,2.449,3.638,2.449
		s0.771,0.49,1.203,1.088c0.431,0.598,1.097,1.088,1.48,1.088s0.697,0.246,0.697,0.545s0.347,0.543,0.771,0.543
		c0.424,0,0.852,0.188,0.952,0.414c0.158,0.359,3.585,2.289,7.388,4.156c0.671,0.33,1.222,0.785,1.224,1.008
		c0.003,0.227,0.372,0.408,0.821,0.408c0.449,0,0.816,0.246,0.816,0.545s0.49,0.545,1.089,0.545c0.598,0,1.088,0.244,1.088,0.543
		s0.504,0.545,1.121,0.545c0.616,0,0.969,0.244,0.784,0.545c-0.185,0.299,0.168,0.543,0.784,0.543c0.617,0,1.121,0.246,1.121,0.545
		s0.49,0.545,1.088,0.545c0.599,0,1.089,0.244,1.089,0.543c0,0.301,0.391,0.545,0.87,0.545c0.812,0,3.617,1.076,5.789,2.223
		c0.52,0.273,1.316,0.498,1.769,0.498c0.453,0,0.823,0.246,0.823,0.545s0.476,0.543,1.057,0.543s1.207,0.246,1.392,0.545
		c0.185,0.299,0.934,0.545,1.665,0.545c0.731,0,1.329,0.244,1.329,0.543s0.612,0.545,1.36,0.545c0.748,0,1.361,0.244,1.361,0.543
		c0,0.301,0.612,0.545,1.36,0.545s1.361,0.244,1.361,0.545c0,0.299,0.734,0.545,1.632,0.545s1.633,0.244,1.633,0.543
		s0.898,0.545,1.995,0.545c1.098,0,1.814,0.182,1.591,0.404c-0.223,0.223,1.267,0.695,3.311,1.051
		c2.043,0.354,4.817,0.926,6.164,1.271c1.347,0.344,3.429,0.754,4.626,0.91c1.197,0.156,2.41,0.504,2.694,0.773
		c0.284,0.268,1.795,0.486,3.356,0.486c1.787,0,2.923,0.252,3.066,0.682c0.177,0.531,5.917,0.68,26.258,0.68
		c20.343,0,26.082-0.148,26.259-0.68c0.143-0.43,1.278-0.682,3.065-0.682c1.562,0,3.071-0.219,3.356-0.486
		c0.284-0.27,1.496-0.617,2.693-0.773c1.198-0.156,3.279-0.566,4.626-0.91c1.347-0.346,4.121-0.918,6.165-1.271
		c2.043-0.355,3.533-0.828,3.311-1.051s0.492-0.404,1.59-0.404s1.996-0.246,1.996-0.545s0.734-0.543,1.633-0.543
		c0.897,0,1.633-0.246,1.633-0.545c0-0.301,0.611-0.545,1.359-0.545c0.75,0,1.361-0.244,1.361-0.545c0-0.299,0.612-0.543,1.36-0.543
		c0.749,0,1.36-0.246,1.36-0.545s0.599-0.543,1.328-0.543c0.731,0,1.48-0.246,1.666-0.545c0.185-0.299,0.812-0.545,1.393-0.545
		c0.58,0,1.056-0.244,1.056-0.543s0.371-0.545,0.824-0.545s1.249-0.225,1.769-0.498c2.172-1.146,4.978-2.223,5.789-2.223
		c0.479,0,0.87-0.244,0.87-0.545c0-0.299,0.49-0.543,1.089-0.543c0.598,0,1.088-0.246,1.088-0.545s0.504-0.545,1.121-0.545
		c0.616,0,0.969-0.244,0.783-0.543c-0.186-0.301,0.168-0.545,0.785-0.545c0.616,0,1.12-0.246,1.12-0.545s0.489-0.543,1.089-0.543
		c0.598,0,1.088-0.246,1.088-0.545s0.367-0.545,0.816-0.545s0.818-0.182,0.82-0.408c0.002-0.223,0.553-0.678,1.225-1.008
		c3.803-1.867,7.229-3.797,7.389-4.156c0.1-0.227,0.528-0.414,0.952-0.414s0.771-0.244,0.771-0.543s0.313-0.545,0.696-0.545
		c0.384,0,1.05-0.49,1.481-1.088c0.431-0.598,0.972-1.088,1.201-1.088c0.23,0,1.867-1.102,3.639-2.449s3.488-2.449,3.816-2.449
		c0.326,0,0.594-0.244,0.594-0.545c0-0.299,0.383-0.545,0.85-0.545s0.697-0.244,0.512-0.543c-0.185-0.299-0.068-0.545,0.258-0.545
		c0.328,0,1.41-0.795,2.406-1.768c0.996-0.975,2.852-2.609,4.121-3.637c2.778-2.246,15.193-14.67,16.344-16.357
		c0.984-1.441,2.185-2.869,4.69-5.584c1.037-1.123,1.741-2.041,1.565-2.041c-0.174,0,0.306-0.623,1.066-1.387
		c0.762-0.762,1.387-1.58,1.387-1.818c0-0.24,0.611-1.148,1.359-2.018s1.36-1.859,1.36-2.203c0-0.342,0.38-0.768,0.843-0.945
		s1.1-1.061,1.414-1.963s0.779-1.641,1.035-1.641c0.255,0,1.025-1.223,1.713-2.721c0.686-1.496,1.433-2.721,1.658-2.721
		c0.228,0,0.412-0.367,0.412-0.816s0.215-0.814,0.479-0.814s0.782-0.736,1.154-1.635c0.371-0.896,0.892-1.633,1.154-1.633
		c0.264,0,0.479-0.49,0.479-1.088s0.245-1.088,0.544-1.088s0.544-0.469,0.544-1.043s0.184-1.125,0.409-1.225
		c0.71-0.316,2.871-4.889,2.553-5.402c-0.168-0.271-0.045-0.494,0.272-0.494c0.316,0,0.576-0.32,0.576-0.713
		c0-0.395,0.489-1.729,1.088-2.967c0.599-1.24,1.088-2.51,1.088-2.824s0.201-0.57,0.447-0.57c0.244,0,0.778-1.225,1.186-2.721
		c0.408-1.496,0.941-2.721,1.188-2.721c0.244,0,0.445-0.6,0.445-1.328c0-0.732,0.245-1.48,0.544-1.666
		c0.3-0.186,0.545-0.934,0.545-1.664c0-0.732,0.244-1.328,0.544-1.328c0.299,0,0.545-0.736,0.545-1.633
		c0-0.898,0.244-1.633,0.543-1.633s0.545-0.734,0.545-1.633s0.199-1.633,0.443-1.633s0.709-1.654,1.032-3.674
		c0.323-2.021,0.879-4.652,1.233-5.85c0.849-2.857,1.646-6.961,2.008-10.342c0.162-1.494,0.574-3.063,0.916-3.482
		c0.695-0.852,1.295-42.665,0.66-46.043C375.302,158.735,375.318,158.736,371.884,160.797 M35.928,168.469
		c-1.397,2.253-4.092,4.786-6.838,6.427l-2.113,1.263l0.257,15.169c0.178,10.477,0.453,15.367,0.889,15.803
		c0.348,0.348,0.632,1.666,0.632,2.928c0,3.807,1.117,5.133,2.707,3.217c0.365-0.438,3.272-2.561,6.461-4.713
		c3.189-2.154,5.869-3.967,5.956-4.031c0.086-0.063-0.091-2.287-0.395-4.943c-0.304-2.658-0.696-6.217-0.871-7.906
		c-0.305-2.957-0.385-3.088-2.103-3.41c-4.972-0.932-6.328-6.26-4.118-16.179C37.631,166.528,37.546,165.86,35.928,168.469
		 M319.367,179.046c-6.422,1.416-21.749,3.85-42.598,6.766l-20.559,2.877l-0.303,1.4c-2.954,13.662-6.995,21.533-14.983,29.184
		c-12.6,12.066-37.413,16.115-52.986,8.646c-8.76-4.201-16.545-15.197-16.587-23.43c-0.011-2.096-0.098-2.221-1.385-1.975
		c-1.695,0.324-1.51,2.027,0.899,8.295c7.743,20.143,26.655,26.467,55.388,18.521c2.368-0.654,1.615,0.076-1.854,1.801
		c-20.741,10.311-53.573-0.271-66.01-21.275c-1.285-2.17-2.53-3.945-2.766-3.945c-2.913,0-31.867,9.154-41.57,13.143
		c-5.563,2.287-20.712,9.652-23.179,11.271c-0.966,0.633,4.067,10.6,9.246,18.307c58.32,86.803,191.958,65.146,219.564-35.58
		c3.076-11.227,5.563-35.1,3.627-34.84C323.088,178.242,321.313,178.617,319.367,179.046 M166.981,240.334
		c-0.003,0.373-0.996,1.096-2.205,1.604l-2.2,0.924l2.175,2.176c13.058,13.059-7.359,40.742-20.659,28.014l-1.941-1.859
		l-2.125,0.887c-4.372,1.828-9.502,0.143-9.502-3.121c0-3.332,4.233-5.123,8.316-3.52c2.792,1.098,2.375,1.504,8.013-7.824
		c2.443-4.041,5.415-8.51,6.605-9.932c1.191-1.422,2.071-2.586,1.957-2.586c-6.31,0-14.233,8.467-11.708,12.512
		c1.662,2.66-3.422,2.51-5.29-0.158c-4.413-6.299,6.111-15.074,18.08-15.074c1.445,0,3.111-0.332,3.702-0.736
		C162.707,239.918,166.991,239.094,166.981,240.334 M158.963,247.645c-1.17,1.742-3.697,5.934-5.616,9.318s-4.647,7.586-6.063,9.336
		c-2.773,3.426-2.769,3.469,0.492,5.123c11.187,5.682,24.956-19.213,14.475-26.172C161.153,244.521,160.974,244.65,158.963,247.645
		 M234.684,249.586c0.885,1.412-0.246,2.85-2.274,2.891c-0.914,0.018-1.988,0.301-2.386,0.627c-0.398,0.328-1.293,0.68-1.987,0.783
		c-1.05,0.158-1.636,1.141-3.457,5.801c-2.304,5.896-2.341,6.629-0.28,5.691c1.793-0.818,4.592-8.301,3.424-9.154
		c-1.346-0.982-0.139-1.969,2.176-1.779c2.744,0.227,2.955,1.547,1.058,6.59c-1.589,4.221-1.66,4.74-0.653,4.74
		c2.059,0,6.018-8.77,4.374-9.689c-1.014-0.568,0.317-2.283,1.772-2.283c3.102,0,3.48,1.764,1.572,7.324
		c-0.715,2.082-1.181,3.98-1.033,4.219c0.759,1.227,1.857,0.104,2.902-2.971c2.187-6.434,3.348-8.279,5.327-8.471
		c2.29-0.221,2.261,0.098-0.585,6.102c-2.553,5.391-4.691,7.688-7.673,8.248c-1.88,0.352-4.123-0.436-4.123-1.447
		c0-0.311-0.646-0.059-1.435,0.563c-1.557,1.225-4.508,1.498-5.496,0.512c-0.461-0.461-1.204-0.385-2.926,0.305
		c-2.203,0.881-2.373,0.877-3.662-0.086c-1.32-0.986-1.405-0.984-3.473,0.039c-4.559,2.254-5.925-0.441-3.388-6.684
		c0.765-1.881,1.315-3.453,1.224-3.494c-2.613-1.182-2.912-2.918-0.871-5.09c2.024-2.154,4.447-0.869,3.262,1.732
		c-0.551,1.207-0.473,1.326,0.962,1.48l1.56,0.168l-1.828,4.52c-1.988,4.92-1.576,6.434,1.076,3.943
		c2.113-1.984,5.268-10.912,3.855-10.912c-1.514,0-0.189-1.65,2.195-2.736c2.815-1.283,4.047-1.361,4.047-0.256
		c0,0.508,0.514,0.816,1.359,0.816c0.948,0,1.361-0.299,1.361-0.98C230.66,248.4,233.475,247.658,234.684,249.586 M266.521,252.123
		c0.518,0.328,0.651,1.018,0.422,2.17c-0.256,1.277-0.143,1.688,0.465,1.688c2.754,0,3.727,4.02,1.859,7.682
		c-2.473,4.848-10.309,5.881-10.309,1.359c0-3.924,4.852-7.754,5.352-4.227c0.193,1.369-1.748,3.893-2.998,3.893
		c-0.871,0-0.951,0.881-0.125,1.393c1.832,1.133,5.653-4.082,5.293-7.221c-0.153-1.34-0.399-1.518-2.08-1.518
		c-2.529,0-2.98-2.238-0.875-4.344C265.018,251.506,265.377,251.4,266.521,252.123 M257.568,254.859
		c1.199,1.324,1.223,4.066,0.059,6.852c-3.462,8.285-13.979,8.613-11.758,0.365C247.564,255.781,254.52,251.49,257.568,254.859
		 M187.417,255.656c0.899,0.658,1.254,0.658,2.526,0c2.043-1.057,3.518-0.957,4.798,0.324c3.772,3.771-3.69,14.555-9.23,13.338
		c-1.234-0.271-1.51-0.072-2.082,1.512c-0.847,2.344-0.832,2.564,0.175,2.564c0.667,0,0.718,0.221,0.253,1.09
		c-0.367,0.686-1.139,1.088-2.087,1.088c-2.813,0-3.519-1.982-2-5.619l0.811-1.939l-1.882,0.785
		c-8.654,3.617-12.6-4.541-5.405-11.172c2.233-2.059,2.654-2.234,4.994-2.084c6.168,0.398,2.967,8.602-3.357,8.602
		c-1.541,0-1.955,1.418-0.761,2.611c2.561,2.561,7.068-0.375,9.111-5.934c1.351-3.676,1.348-3.631,0.207-3.85
		c-0.845-0.162-0.842-0.248,0.039-1.129C184.678,254.693,186.011,254.629,187.417,255.656 M208.061,255.965
		c2.25,2.486-0.248,9.582-4.226,12.008c-4.111,2.506-8.502,0.354-7.725-3.789C197.415,257.227,204.682,252.23,208.061,255.965
		 M252.182,257.445c-1.854,2.707-3.344,7.68-2.541,8.482c1.319,1.318,4.639-4.107,5.053-8.26
		C254.952,255.07,253.871,254.975,252.182,257.445 M202.966,257.93c-1.325,1.686-3.439,7.137-3.214,8.293
		c0.538,2.773,3.866-1.105,5.13-5.979C205.898,256.326,205.041,255.293,202.966,257.93 M176.66,258.021
		c-1.978,2.256-2.732,4.49-1.516,4.49c0.668,0,1.539-0.705,2.188-1.77c1.115-1.828,1.428-3.674,0.623-3.674
		C177.702,257.068,177.119,257.496,176.66,258.021 M189.178,257.732c-0.965,0.732-4.411,9.135-3.941,9.605
		c0.816,0.816,3.277-1.02,4.662-3.475C192.459,259.32,192.019,255.576,189.178,257.732"/>
	<path id="path6" fill="#F5F7FA" d="M191.476,0.516C110.513,7.431,46.881,59.474,27.231,134.848l-1.549,5.941l-6.218,1.524
		c-10.071,2.469-14.502,4.969-16.695,9.418c-2.828,5.736-1.767,9.736,2.58,9.736c0.901,0,1.637,0.054,1.637,0.121
		c0,0.066-1.011,4.739-2.246,10.386c-3.936,17.98-2.748,22.509,5.905,22.509c5.763,0,8.555-1.688,9.649-5.834l0.686-2.602
		l0.316,2.994c0.173,1.645,0.581,5.932,0.905,9.521c0.325,3.592,1.101,9.438,1.725,12.99l1.134,6.457l-3.246,3.338
		c-17.432,17.922-25.56,37.063-13.059,30.752c7.456-3.762,18.213-7.006,23.242-7.006c0.666,0,1.819,2.078,4.143,7.459
		c40.092,92.842,148.868,134.486,241.112,92.303c69.749-31.893,112.471-106.762,104.216-182.637l-0.757-6.957l2.389-1.984
		c14.926-12.396,20.543-29.281,14.036-42.195c-6.135-12.18-21.021-16.146-29.692-7.91l-1.721,1.634l-0.771-1.472
		c-0.69-1.317-0.656-1.704,0.321-3.681c4.142-8.371-1.522-18.005-10.102-17.18c-1.695,0.163-1.962-0.076-4.969-4.454
		C315.421,27.388,250.128-4.494,191.476,0.516 M227.803,7.137c0.143,0.428,1.278,0.68,3.065,0.68c1.562,0,3.071,0.22,3.356,0.489
		c0.284,0.268,1.496,0.616,2.693,0.771c1.198,0.155,3.279,0.565,4.626,0.91c1.347,0.346,4.121,0.918,6.165,1.272
		c2.043,0.354,3.533,0.828,3.311,1.05c-0.223,0.223,0.492,0.405,1.59,0.405s1.996,0.245,1.996,0.544c0,0.3,0.734,0.544,1.633,0.544
		c0.897,0,1.633,0.245,1.633,0.545c0,0.299,0.611,0.544,1.359,0.544c0.75,0,1.361,0.245,1.361,0.544s0.612,0.544,1.36,0.544
		c0.749,0,1.36,0.245,1.36,0.545c0,0.299,0.599,0.544,1.328,0.544c0.731,0,1.48,0.245,1.666,0.544
		c0.185,0.299,0.812,0.544,1.393,0.544c0.58,0,1.056,0.245,1.056,0.544c0,0.301,0.371,0.545,0.824,0.545s1.249,0.225,1.769,0.498
		c2.172,1.146,4.978,2.224,5.789,2.224c0.479,0,0.87,0.245,0.87,0.544s0.49,0.544,1.089,0.544c0.598,0,1.088,0.245,1.088,0.544
		c0,0.3,0.504,0.545,1.121,0.545c0.616,0,0.969,0.244,0.783,0.544c-0.186,0.299,0.168,0.544,0.785,0.544
		c0.616,0,1.12,0.245,1.12,0.544c0,0.3,0.489,0.544,1.089,0.544c0.598,0,1.088,0.245,1.088,0.545c0,0.299,0.367,0.544,0.816,0.544
		s0.818,0.185,0.82,0.408c0.002,0.226,0.553,0.678,1.225,1.008c3.803,1.869,7.229,3.797,7.389,4.157
		c0.1,0.228,0.528,0.413,0.952,0.413s0.771,0.245,0.771,0.544c0,0.3,0.313,0.545,0.696,0.545c0.384,0,1.05,0.49,1.481,1.088
		c0.431,0.6,0.972,1.089,1.201,1.089c0.23,0,1.867,1.103,3.639,2.449s3.488,2.449,3.816,2.449c0.326,0,0.594,0.244,0.594,0.544
		c0,0.299,0.383,0.544,0.85,0.544s0.697,0.245,0.512,0.544c-0.185,0.3-0.068,0.544,0.258,0.544c0.328,0,1.41,0.796,2.406,1.77
		c0.996,0.973,2.852,2.608,4.121,3.636c2.778,2.246,15.193,14.671,16.344,16.357c0.984,1.441,2.185,2.87,4.69,5.584
		c1.037,1.123,1.741,2.041,1.565,2.041c-0.174,0,0.306,0.624,1.066,1.386c0.762,0.762,1.387,1.581,1.387,1.82
		s0.611,1.146,1.359,2.017c0.748,0.869,1.36,1.86,1.36,2.203c0,0.342,0.374,0.765,0.829,0.939c2.059,0.79,1.832,2.692-0.5,4.202
		c-3.246,2.1-6.094,5.287-7.428,8.307c-0.642,1.454-1.348,2.434-1.57,2.178c-0.221-0.256-2.071-2.915-4.112-5.908
		C259.169-17.621,91.686,6.755,50.489,131.341l-2.066,6.245l-3.494,1.416c-4.381,1.773-7.316,3.571-8.039,4.923
		c-0.541,1.01-0.625,1-2.569-0.321c-1.105-0.751-2.346-1.365-2.759-1.365c-0.548,0-0.664-0.475-0.431-1.769
		c0.175-0.974,0.615-3.544,0.977-5.714c0.362-2.17,0.857-3.946,1.101-3.946s0.444-0.734,0.444-1.632
		c0-0.898,0.245-1.633,0.544-1.633c0.3,0,0.544-0.735,0.544-1.634c0-0.897,0.245-1.632,0.545-1.632c0.299,0,0.544-0.598,0.544-1.329
		c0-0.729,0.245-1.479,0.544-1.665c0.299-0.185,0.544-0.934,0.544-1.664s0.201-1.328,0.446-1.328c0.245,0,0.779-1.225,1.187-2.722
		c0.408-1.496,0.942-2.721,1.187-2.721c0.245,0,0.446-0.257,0.446-0.57s0.489-1.585,1.088-2.824
		c0.599-1.238,1.089-2.573,1.089-2.967c0-0.392,0.259-0.714,0.576-0.714s0.439-0.221,0.272-0.492
		c-0.318-0.515,1.843-5.088,2.553-5.402c0.224-0.101,0.408-0.651,0.408-1.226s0.245-1.043,0.544-1.043c0.3,0,0.545-0.49,0.545-1.088
		c0-0.599,0.215-1.089,0.478-1.089c0.263,0,0.782-0.735,1.154-1.633c0.372-0.898,0.892-1.632,1.155-1.632
		c0.263,0,0.478-0.368,0.478-0.817s0.185-0.816,0.411-0.816s0.973-1.224,1.66-2.721c0.686-1.497,1.457-2.721,1.712-2.721
		c0.255,0,0.721-0.738,1.036-1.641c0.314-0.901,0.95-1.784,1.414-1.963c0.463-0.178,0.842-0.603,0.842-0.944
		c0.001-0.343,0.613-1.334,1.361-2.203c0.748-0.87,1.36-1.777,1.36-2.017s0.623-1.059,1.385-1.82
		c0.762-0.762,1.242-1.386,1.067-1.386c-0.176,0,0.529-0.918,1.565-2.041c2.507-2.714,3.707-4.143,4.69-5.584
		c1.152-1.687,13.566-14.111,16.344-16.357c1.271-1.027,3.125-2.663,4.122-3.636c0.996-0.974,2.078-1.77,2.405-1.77
		s0.443-0.244,0.258-0.544c-0.185-0.299,0.046-0.544,0.513-0.544c0.466,0,0.848-0.245,0.848-0.544c0-0.3,0.268-0.544,0.595-0.544
		c0.328,0,2.045-1.103,3.816-2.449s3.408-2.449,3.638-2.449s0.771-0.489,1.203-1.089c0.431-0.598,1.097-1.088,1.48-1.088
		s0.697-0.245,0.697-0.545c0-0.299,0.347-0.544,0.771-0.544c0.424,0,0.852-0.186,0.952-0.413c0.158-0.36,3.585-2.288,7.388-4.157
		c0.671-0.33,1.222-0.782,1.224-1.008c0.003-0.224,0.372-0.408,0.821-0.408c0.449,0,0.816-0.245,0.816-0.544
		c0-0.3,0.49-0.545,1.089-0.545c0.598,0,1.088-0.244,1.088-0.544c0-0.299,0.504-0.544,1.121-0.544c0.616,0,0.969-0.245,0.784-0.544
		c-0.185-0.3,0.168-0.544,0.784-0.544c0.617,0,1.121-0.245,1.121-0.545c0-0.299,0.49-0.544,1.088-0.544
		c0.599,0,1.089-0.245,1.089-0.544s0.391-0.544,0.87-0.544c0.812,0,3.617-1.077,5.789-2.224c0.52-0.273,1.316-0.498,1.769-0.498
		c0.453,0,0.823-0.244,0.823-0.545c0-0.299,0.476-0.544,1.057-0.544s1.207-0.245,1.392-0.544c0.185-0.299,0.934-0.544,1.665-0.544
		c0.731,0,1.329-0.245,1.329-0.544c0-0.3,0.612-0.545,1.36-0.545c0.748,0,1.361-0.245,1.361-0.544s0.612-0.544,1.36-0.544
		s1.361-0.245,1.361-0.544c0-0.3,0.734-0.545,1.632-0.545s1.633-0.244,1.633-0.544c0-0.299,0.898-0.544,1.995-0.544
		c1.098,0,1.814-0.183,1.591-0.405c-0.223-0.222,1.267-0.695,3.311-1.05c2.043-0.354,4.817-0.927,6.164-1.272
		c1.347-0.345,3.429-0.755,4.626-0.91c1.197-0.155,2.41-0.504,2.694-0.771c0.284-0.27,1.815-0.489,3.401-0.489
		c1.587,0,2.885-0.232,2.885-0.518C175.15,6.075,227.395,5.914,227.803,7.137 M219.814,60.064
		c23.994,3.522,47.845,14.899,64.832,30.925l3.756,3.543l-3.43,0.864c-12.475,3.143-20.158,14.737-21.031,31.733l-0.356,6.931
		l-2.022,2.021c-2.955,2.954-2.948,2.711,0.396-13.22c3.277-15.604,3.234-15.452,4.295-15.452c2.32,0,3.869-7.029,1.839-8.346
		c-1.168-0.756-15.345,1.471-18.657,2.931c-3.192,1.407-7.947,2.149-13.842,2.158c-8.918,0.013-16.67,2.671-18.404,6.31
		l-0.819,1.718l-1.89-1.282c-3.694-2.508-9.295-2.364-14.785,0.379c-9.795,4.896-13.028,16.665-6.815,24.812l1.372,1.798h-1.587
		c-1.839,0-4.12,1.63-5.643,4.033l-1.066,1.681l0.447-2.449c1.783-9.779,0.014-19.517-4.189-23.053
		c-7.153-6.02-21.985-1.684-28.351,8.288l-1.518,2.378l-0.323-1.563c-1.809-8.767-15.862-9.275-17.377-0.629
		c-0.402,2.291,1.19,4.541,2.897,4.096c0.879-0.23,0.879,0.203-0.004,7.704c-0.515,4.372-1.019,8.684-1.121,9.581
		c-0.126,1.116-0.835-0.923-2.238-6.441c-3.839-15.095-8.689-19.329-18.405-16.066c-4.909,1.649-5.109,9.719-0.242,9.719
		c1.158,0,1.279-0.65-2.968,15.94c-4.722,18.445-4.762,20.544-0.441,23.266c2.952,1.86,11.673,0.515,12.618-1.946
		c1.508-3.931,0.476-7.774-1.918-7.148c-1.103,0.288-1.415-3.896-0.64-8.589c0.349-2.115,0.377-2.068,1.644,2.703
		c3.134,11.806,10.731,15.486,21.676,10.499c3.405-1.551,3.252-8.603-0.187-8.603c-1.096,0-1.261-0.204-0.994-1.224
		c0.176-0.674,0.751-3.048,1.276-5.276l0.956-4.051l0.662,3.954c3.258,19.455,28.566,16.424,36.557-4.378
		c0.916-2.385,1.12-2.63,1.143-1.374c0.149,8.029,5.529,12.768,13.884,12.232c14.814-0.951,25.108-18.14,16.631-27.771l-2.107-2.394
		l1.617-1.527c0.889-0.84,2.104-2.482,2.699-3.649c1.118-2.191,7.84-9.65,8.26-9.168c0.132,0.149-0.572,3.945-1.563,8.436
		c-5.271,23.881-5.349,24.84-2.317,28.294c2.699,3.073,11.524,2.887,14.188-0.299c2.181-2.608,1.821-7.678-0.569-8.033
		c-1.484-0.221-1.682,1.392,1.926-15.727l3.123-14.811l1.381,0.39c0.76,0.215,2.666,0.39,4.238,0.39
		c1.713,0,2.856,0.238,2.856,0.598c0,0.329-1.12,5.84-2.489,12.245c-2.749,12.861-2.943,16.725-0.974,19.409
		c3.948,5.386,13.942,4.069,20.028-2.638l1.771-1.948l1.694,1.514c6.246,5.58,21.649,0.946,26.668-8.023
		c0.476-0.848,0.736-0.733,2.421,1.053c3.989,4.23,10.645,5.084,17.877,2.29c0.961-0.371,6.608,17.781,5.771,18.553
		c-0.189,0.175-13.856,2.282-20.521,3.163c-17.348,2.294-34.105,3.762-68.844,6.032c-66.377,4.335-112.749,10.402-143.945,18.833
		c-3.442,0.93-6.809,1.816-7.483,1.967c-1.178,0.266-1.224,0.135-1.224-3.465v-3.74l2.46,0.195
		c10.622,0.845,21.05-7.581,25.049-20.239c6.705-21.223,0.188-34.984-14.988-31.65l-1.741,0.382l2.889-5.633
		C116.955,78.621,168.352,52.508,219.814,60.064 M360.499,86.667c3.431,2.092,4.423,7.607,2.157,11.989
		c-2.86,5.53-8.459,5.032-8.459-0.752c0-2.924,2.502-6.276,4.683-6.276c1.688,0,1.661-0.83-0.065-1.961
		c-3.584-2.349-9.852,0.584-11,5.146c-1.037,4.127,1.031,7.094,6.692,9.597c10.576,4.679,11.7,14.802,2.569,23.146
		c-9.027,8.25-21.926,5.786-21.926-4.19c0-6.754,4.563-11.462,7.992-8.242c2.573,2.419,1.078,8.198-2.507,9.684
		c-2.052,0.85-1.934,1.552,0.501,2.975c5.754,3.36,13.604-1.45,13.604-8.336c0-2.744-1.845-4.688-6.827-7.19
		c-7.797-3.918-10.502-10.775-7.014-17.775C344.43,87.399,354.873,83.235,360.499,86.667 M325.516,92.362
		c12.543,5.24,6.036,37.412-8.988,44.443c-15.217,7.12-22.977-3.262-17.862-23.9C302.432,97.71,315.105,88.012,325.516,92.362
		 M352.836,93.123c-0.929,2.272-1.429,4.709-1.171,5.699c0.269,1.022,0.233,1.027-0.771,0.117c-1.34-1.212-1.33-2.767,0.031-5
		C352.063,92.076,353.518,91.454,352.836,93.123 M317.436,95.657c-9.215,4.015-15.773,38.913-7.319,38.952
		c7.049,0.033,15.11-22.593,12.512-35.114C321.779,95.41,320.38,94.375,317.436,95.657 M293.079,98.133
		c6.843,4.173,3.038,20.151-4.646,19.51c-5.761-0.482-2.494-13.499,3.387-13.499c1.724,0,1.811-0.703,0.275-2.237
		c-1.461-1.461-4.687-1.073-7.724,0.928c-8.172,5.384-12.481,31.485-5.789,35.067c3.681,1.969,10.212-0.76,13.157-5.497
		c1.814-2.92,2.115-3.098,3.148-1.854c1.818,2.191-3.796,9.082-9.623,11.809c-7.095,3.32-13.482,2.576-16.451-1.915l-1.299-1.969
		l-1.475,2.034c-5.271,7.275-13.627,10.272-17.591,6.31c-2.449-2.449-2.341-4.04,1.505-22.224
		c1.958-9.255,3.447-16.938,3.313-17.074c-0.66-0.66-1.828,0.542-2.139,2.205c-0.615,3.279-5.025,4.323-9.779,2.315
		c-2.646-1.118-1.91-3.067-6.031,15.975c-4.129,19.084-4.117,18.978-2.073,19.429c0.823,0.183,1.653,0.37,1.846,0.419
		c1.166,0.294-1.062,3.87-2.798,4.493c-10.32,3.698-11.298,0.275-6.461-22.626l3.467-16.411l1.865-1.154
		c3.016-1.868,0.834-1.765-3.042,0.144c-4.214,2.074-11.239,8.839-12.53,12.065c-2.379,5.946-8.878,5.563-8.878-0.523
		c0-2.259,2.132-5.186,4.229-5.807c3.024-0.897,0.979-3.018-2.909-3.018c-9.527,0-10.438,10.717-1.308,15.385
		c7.068,3.615,9.625,7.078,9.119,12.354c-1.339,13.916-22.611,22.086-27.437,10.536c-2.847-6.813,3.279-16.216,7.69-11.806
		c2.39,2.391-0.464,9.994-3.752,9.994c-2.538,0,1.146,2.975,4.459,3.601c5.697,1.077,12.208-5.949,10.377-11.2
		c-0.595-1.706-6.181-6.006-7.803-6.006c-3.181,0-7.676-7.673-7.199-12.29c1.162-11.262,18.3-19.06,23.151-10.532
		c1.19,2.092,1.188,2.093,3.082-1.533c2.599-4.978,5.44-6.136,16.472-6.711c7.803-0.406,13.414-1.34,15.83-2.633
		c0.506-0.271,3.854-1.02,7.438-1.665c3.586-0.644,7.072-1.305,7.75-1.468c0.877-0.211,1.164-0.083,0.998,0.444
		c-0.129,0.407-0.373,1.384-0.543,2.169c-0.221,1.011-0.752,1.515-1.821,1.729l-1.509,0.302l-3.453,16.545
		c-4.234,20.286-4.161,21.023,1.714,17.296c4.026-2.555,4.835-4.383,5.004-11.321c0.263-10.771,2.979-18.066,8.981-24.107
		C281.316,98.026,288.79,95.518,293.079,98.133 M385.039,103.04c18.936,8.378,14.722,35.142-8.081,51.325
		c-21.687,15.394-41.787,20.731-117.183,31.125c-67.721,9.336-91.572,13.734-121.088,22.33
		c-34.775,10.127-59.793,23.914-74.145,40.857l-3.868,4.566l-3.064-2.924c-10.479-9.994-29.763-10.697-47.935-1.744
		c-4.777,2.354-4.955,2.25-3.009-1.727c13.664-27.914,46.59-50.002,88.981-59.691c36.565-8.358,72.256-12.775,138.822-17.18
		c99.639-6.593,136.117-15.665,150.573-37.444c6.856-10.329,5.601-21.922-2.787-25.73c-5.584-2.537-12.147,0.74-13.675,6.825
		c-0.495,1.975-0.982,2.103-2.371,0.625l-1.208-1.286l1.203-2.795C369.404,102.734,377.454,99.685,385.039,103.04 M284.468,107.132
		c-5.321,9.021,2.371,17.411,9.916,10.815c0.785-0.685,0.827-0.51,0.441,1.835c-0.235,1.426-0.441,3.634-0.459,4.905
		c-0.028,1.957-0.204,2.313-1.146,2.313c-0.705,0-1.457,0.65-2.041,1.768c-3.113,5.94-9.341,9.157-11.92,6.159
		c-3.234-3.762-0.455-21.99,4.219-27.655C285.581,104.722,285.918,104.674,284.468,107.132 M381.236,109.555
		c7.728,3.509,7.06,15.639-1.381,25.064l-2.68,2.993l-0.619-2.449c-0.34-1.347-1.852-6.219-3.358-10.825l-2.741-8.377l1.29-2.508
		C374.074,108.932,377.113,107.683,381.236,109.555 M349.673,116.089c2.474,1.508,3.103,2.909,2.341,5.217
		c-1.109,3.363-1.256,3.19-4.738-5.598C346.893,114.744,347.668,114.867,349.673,116.089 M178.795,118.89
		c11.945,5.782,5.218,36.893-9.549,44.163c-10.54,5.188-18.968,0.79-19.548-10.202C148.55,131.081,164.799,112.115,178.795,118.89
		 M205.32,119.989c-0.51,0.988-0.953,2.742-0.983,3.898l-0.055,2.1l-0.994-1.227c-1.237-1.528-0.851-3.445,1.112-5.509
		C206.178,117.382,206.525,117.66,205.32,119.989 M366.76,121.259c0.274,0.285,0.499,1.08,0.499,1.769s0.244,1.252,0.544,1.252
		c0.299,0,0.545,0.734,0.545,1.632c0,0.898,0.244,1.634,0.543,1.634s0.545,0.734,0.545,1.633c0,0.897,0.199,1.632,0.443,1.632
		s0.74,1.776,1.102,3.946c0.362,2.17,0.797,4.705,0.968,5.633c0.297,1.625,0.149,1.781-3.959,4.188
		c-8.443,4.948-10.49,5.438-10.519,2.52c-0.005-0.471-0.82-3.826-1.813-7.455l-1.806-6.6l2.569-1.665
		c4.146-2.688,6.774-6.272,8.994-12.268c0.371-1.003,0.42-0.981,0.625,0.272C366.162,120.13,366.486,120.975,366.76,121.259
		 M168.484,122.637c-6.949,5.465-12.748,33.133-7.831,37.361c4.653,4.004,11.277-5.149,13.78-19.038
		C177.101,126.155,174.438,117.953,168.484,122.637 M311.802,131.417c-2.417,1.963-3.616-0.47-2.985-6.05l0.338-2.992l1.978,3.989
		l1.978,3.991L311.802,131.417 M147.83,124.295c2.264,2.108,2.147,3.188-2.278,20.946c-4.525,18.159-4.605,19.071-1.635,18.589
		c1.773-0.287,1.797-0.264,1.48,1.439c-0.431,2.307-0.5,2.362-4.239,3.335c-10.415,2.712-12.66,0.319-17.204-18.334
		c-2.11-8.658-2.277-8.692-3.423-0.685c-2.061,14.407-1.785,19.254,1.058,18.541c1.103-0.277,1.314-0.132,1.307,0.903
		c-0.017,2.528-2.074,3.685-6.557,3.685c-6.058,0-6.148-1.972-1.027-22.417c4.333-17.302,4.352-17.514,1.533-17.748
		c-1.719-0.145-2.023-0.383-2.311-1.825c-0.45-2.252-0.23-2.468,3.266-3.194c8.773-1.82,10.617,0.68,15.763,21.374
		c1.767,7.109,3.347,12.926,3.51,12.926c0.312,0,3.822-29.711,3.802-32.187c-0.012-1.587-0.936-2.182-2.68-1.726
		c-1.209,0.315-1.387-0.215-0.804-2.388C138.038,123.116,145.603,122.221,147.83,124.295 M172.642,124.596
		c2.159,5.626-2.15,26.285-6.589,31.593c-4.237,5.065-5.652,0.371-3.712-12.318C164.155,132.003,170.75,119.664,172.642,124.596
		 M102.413,132.935c8.43,5.211,5.904,29.116-4.155,39.312c-7.004,7.101-18.014,8.717-22.736,3.338
		c-1.589-1.811-1.768-1.885-2.291-0.95c-2.434,4.35-7.613,7.877-11.565,7.877c-4.75,0-6.248-2.144-7.673-10.977
		c-1.005-6.233-1.021-6.269-2.881-6.527c-1.267-0.177-1.374,0.073-2.818,6.592c-1.628,7.349-1.487,8.735,0.888,8.735
		c2.438,0,1.295,3.884-1.422,4.83c-10.199,3.557-11.437-0.434-6.801-21.925l2.924-13.557l2.912-2.659
		c3.161-2.886,2.059-2.62-2.802,0.676c-4.904,3.325-6.296,5.208-6.699,9.063c-1.072,10.257-7.852,17.332-17.254,18.005
		c-2.849,0.204-3.838,0.486-4.035,1.15c-2.233,7.546-2.045,10.759,0.602,10.253c1.298-0.248,1.343-0.172,0.99,1.713
		c-0.412,2.195-0.785,2.547-3.536,3.33c-9.466,2.699-10.416-0.971-5.768-22.298l2.904-13.324l2.896-2.595
		c1.593-1.427,2.709-2.594,2.48-2.594c-0.832,0-7.723,4.795-9.28,6.457c-3.349,3.575-4.673,1.696-2.227-3.16
		c4.479-8.895,23.946-12.882,29.755-6.096l1.918,2.241l1.26-2.69c1.914-4.086,10.95-8.05,20.688-9.075
		c12.62-1.327,14.953,10.948,3.991,20.994l-3.433,3.146l2.508,5.657c3.525,7.949,4.37,8.441,8.081,4.703l2.296-2.313l0.346-5.714
		c1.109-18.349,7.84-29.454,19.68-32.475C95.718,131.17,100.156,131.542,102.413,132.935 M91.101,136.841
		c-7.723,6.78-12.677,34.146-6.779,37.446c4.364,2.442,9.925-5.383,12.528-17.627C100.287,140.489,97.579,131.153,91.101,136.841
		 M95.534,146.275c-0.596,13.459-5.346,25.896-9.892,25.896c-3.675,0-0.017-23.47,4.805-30.83
		C94.554,135.072,95.969,136.445,95.534,146.275 M204.398,144.276c1.802,2.737-2.276,8.303-6.083,8.303h-1.996l1.524-2
		c1.345-1.766,1.524-2.464,1.524-5.944v-3.945l2.113,1.183C202.645,142.523,203.957,143.604,204.398,144.276 M55.304,142.375
		c-0.536,0.419-1.419,3.293-2.299,7.482c-0.785,3.741-1.566,7.252-1.734,7.802c-0.263,0.858-0.15,0.915,0.798,0.408
		c0.607-0.325,2.062-0.591,3.233-0.591c3.32,0,5.573-3.843,5.555-9.474C60.84,143.18,57.981,140.282,55.304,142.375 M22.459,148.097
		c-0.319,0.22-1.684,5.476-3.033,11.679l-2.452,11.279l1.401-0.322c8.962-2.061,14.755-23.085,6.35-23.044
		C23.799,147.694,22.779,147.878,22.459,148.097 M375.884,184.195c-0.134,15.557-0.375,22.32-0.813,22.857
		c-0.344,0.42-0.756,1.99-0.918,3.484c-0.362,3.381-1.159,7.484-2.008,10.342c-0.354,1.197-0.91,3.828-1.233,5.85
		c-0.323,2.02-0.788,3.674-1.032,3.674s-0.443,0.734-0.443,1.633s-0.246,1.633-0.545,1.633s-0.543,0.734-0.543,1.633
		c0,0.896-0.246,1.633-0.545,1.633c-0.3,0-0.544,0.596-0.544,1.328c0,0.73-0.245,1.479-0.545,1.664
		c-0.299,0.186-0.544,0.934-0.544,1.666c0,0.729-0.201,1.328-0.445,1.328c-0.246,0-0.779,1.225-1.188,2.721
		c-0.407,1.496-0.941,2.721-1.186,2.721c-0.246,0-0.447,0.256-0.447,0.57s-0.489,1.584-1.088,2.824
		c-0.599,1.238-1.088,2.572-1.088,2.967c0,0.393-0.26,0.713-0.576,0.713c-0.317,0-0.44,0.223-0.272,0.494
		c0.318,0.514-1.843,5.086-2.553,5.402c-0.226,0.1-0.409,0.65-0.409,1.225s-0.245,1.043-0.544,1.043s-0.544,0.49-0.544,1.088
		s-0.215,1.088-0.479,1.088c-0.263,0-0.783,0.736-1.154,1.633c-0.372,0.898-0.891,1.635-1.154,1.635s-0.479,0.365-0.479,0.814
		s-0.185,0.816-0.412,0.816c-0.226,0-0.973,1.225-1.658,2.721c-0.688,1.498-1.458,2.721-1.713,2.721
		c-0.256,0-0.721,0.738-1.035,1.641s-0.951,1.785-1.414,1.963s-0.843,0.604-0.843,0.945c0,0.344-0.612,1.334-1.36,2.203
		s-1.359,1.777-1.359,2.018c0,0.238-0.625,1.057-1.387,1.818c-0.761,0.764-1.24,1.387-1.066,1.387c0.176,0-0.528,0.918-1.565,2.041
		c-2.506,2.715-3.706,4.143-4.69,5.584c-1.15,1.688-13.565,14.111-16.344,16.357c-1.27,1.027-3.125,2.662-4.121,3.637
		c-0.996,0.973-2.078,1.768-2.406,1.768c-0.326,0-0.442,0.246-0.258,0.545c0.186,0.299-0.045,0.543-0.512,0.543
		s-0.85,0.246-0.85,0.545c0,0.301-0.268,0.545-0.594,0.545c-0.328,0-2.045,1.102-3.816,2.449s-3.408,2.449-3.639,2.449
		c-0.229,0-0.771,0.49-1.201,1.088c-0.432,0.598-1.098,1.088-1.481,1.088c-0.383,0-0.696,0.246-0.696,0.545
		s-0.347,0.543-0.771,0.543s-0.853,0.188-0.952,0.414c-0.159,0.359-3.586,2.289-7.389,4.156c-0.672,0.33-1.223,0.785-1.225,1.008
		c-0.002,0.227-0.371,0.408-0.82,0.408s-0.816,0.246-0.816,0.545s-0.49,0.545-1.088,0.545c-0.6,0-1.089,0.244-1.089,0.543
		s-0.504,0.545-1.12,0.545c-0.617,0-0.971,0.244-0.785,0.545c0.186,0.299-0.167,0.543-0.783,0.543c-0.617,0-1.121,0.246-1.121,0.545
		s-0.49,0.545-1.088,0.545c-0.599,0-1.089,0.244-1.089,0.543c0,0.301-0.392,0.545-0.87,0.545c-0.812,0-3.617,1.076-5.789,2.223
		c-0.52,0.273-1.315,0.498-1.769,0.498s-0.824,0.246-0.824,0.545s-0.476,0.543-1.056,0.543c-0.581,0-1.208,0.246-1.393,0.545
		c-0.186,0.299-0.935,0.545-1.666,0.545c-0.729,0-1.328,0.244-1.328,0.543s-0.611,0.545-1.36,0.545c-0.748,0-1.36,0.244-1.36,0.543
		c0,0.301-0.611,0.545-1.361,0.545c-0.748,0-1.359,0.244-1.359,0.545c0,0.299-0.735,0.545-1.633,0.545
		c-0.898,0-1.633,0.244-1.633,0.543s-0.898,0.545-1.996,0.545s-1.813,0.182-1.59,0.404s-1.268,0.695-3.311,1.051
		c-2.044,0.354-4.818,0.926-6.165,1.271c-1.347,0.344-3.428,0.754-4.626,0.91c-1.197,0.156-2.409,0.504-2.693,0.773
		c-0.285,0.268-1.795,0.486-3.356,0.486c-1.787,0-2.923,0.252-3.065,0.682c-0.177,0.531-5.916,0.68-26.259,0.68
		c-20.341,0-26.081-0.148-26.258-0.68c-0.143-0.43-1.279-0.682-3.066-0.682c-1.561,0-3.072-0.219-3.356-0.486
		c-0.284-0.27-1.497-0.617-2.694-0.773c-1.197-0.156-3.279-0.566-4.626-0.91c-1.347-0.346-4.121-0.918-6.164-1.271
		c-2.044-0.355-3.534-0.828-3.311-1.051c0.223-0.223-0.493-0.404-1.591-0.404c-1.097,0-1.995-0.246-1.995-0.545
		s-0.735-0.543-1.633-0.543s-1.632-0.246-1.632-0.545c0-0.301-0.613-0.545-1.361-0.545s-1.36-0.244-1.36-0.545
		c0-0.299-0.613-0.543-1.361-0.543c-0.748,0-1.36-0.246-1.36-0.545s-0.598-0.543-1.329-0.543c-0.731,0-1.48-0.246-1.665-0.545
		c-0.185-0.299-0.811-0.545-1.392-0.545s-1.057-0.244-1.057-0.543s-0.37-0.545-0.823-0.545c-0.453,0-1.249-0.225-1.769-0.498
		c-2.172-1.146-4.977-2.223-5.789-2.223c-0.479,0-0.87-0.244-0.87-0.545c0-0.299-0.49-0.543-1.089-0.543
		c-0.598,0-1.088-0.246-1.088-0.545s-0.504-0.545-1.121-0.545c-0.616,0-0.969-0.244-0.784-0.543
		c0.185-0.301-0.168-0.545-0.784-0.545c-0.617,0-1.121-0.246-1.121-0.545s-0.49-0.543-1.088-0.543c-0.599,0-1.089-0.246-1.089-0.545
		s-0.367-0.545-0.816-0.545c-0.449,0-0.818-0.182-0.821-0.408c-0.002-0.223-0.553-0.678-1.224-1.008
		c-3.803-1.867-7.23-3.797-7.388-4.156c-0.1-0.227-0.528-0.414-0.952-0.414c-0.424,0-0.771-0.244-0.771-0.543
		s-0.314-0.545-0.697-0.545s-1.049-0.49-1.48-1.088c-0.432-0.598-0.973-1.088-1.203-1.088s-1.867-1.102-3.638-2.449
		s-3.488-2.449-3.816-2.449c-0.327,0-0.595-0.244-0.595-0.545c0-0.299-0.382-0.545-0.848-0.545c-0.467,0-0.698-0.244-0.513-0.543
		c0.185-0.299,0.069-0.545-0.258-0.545s-1.409-0.795-2.405-1.768c-0.997-0.975-2.851-2.609-4.122-3.637
		c-2.778-2.246-15.192-14.67-16.344-16.357c-0.983-1.441-2.183-2.869-4.69-5.584c-1.036-1.123-1.741-2.041-1.565-2.041
		c0.175,0-0.305-0.623-1.067-1.387c-0.762-0.762-1.385-1.58-1.385-1.818c0-0.24-0.612-1.148-1.36-2.018s-1.36-1.859-1.361-2.203
		c0-0.342-0.379-0.768-0.842-0.945c-0.464-0.178-1.1-1.061-1.414-1.963c-0.315-0.902-0.781-1.641-1.036-1.641
		c-0.255,0-1.026-1.223-1.712-2.721c-0.687-1.496-1.434-2.721-1.66-2.721s-0.411-0.367-0.411-0.816s-0.215-0.814-0.478-0.814
		c-0.263,0-0.783-0.736-1.155-1.635c-0.372-0.896-0.891-1.633-1.154-1.633c-0.263,0-0.478-0.49-0.478-1.088
		s-0.245-1.088-0.545-1.088c-0.299,0-0.544-0.469-0.544-1.043s-0.184-1.125-0.408-1.225c-0.71-0.316-2.871-4.889-2.553-5.402
		c0.167-0.271,0.045-0.494-0.272-0.494s-0.576-0.32-0.576-0.713c0-0.395-0.49-1.729-1.089-2.967c-0.599-1.24-1.088-2.49-1.088-2.779
		s-0.207-0.607-0.46-0.705c-0.253-0.1-0.625-0.855-0.827-1.678c-1.04-4.244,11.732,0.256,17.766,6.258
		c1.73,1.721,3.473,3.129,3.872,3.129s1.893,2.021,3.32,4.49c52.64,91.125,177.731,106.986,251.502,31.891
		c30.101-30.643,45.56-68.85,45.58-112.655l0.006-13.417l3.777-1.82c2.077-1.002,5.274-2.723,7.104-3.821l3.326-1.999l0.461,1.728
		C375.867,161.326,375.989,172.045,375.884,184.195 M21.678,164.946c-0.532,0.834-0.575,0.78-0.315-0.394
		c0.166-0.749,0.342-1.852,0.391-2.449c0.058-0.71,0.168-0.572,0.315,0.394C22.193,163.313,22.017,164.415,21.678,164.946
		 M36.611,171.952c-2.262,10.367-1.393,14.21,3.629,16.072l2.393,0.887l0.323,3.738c0.177,2.057,0.507,5.586,0.733,7.842l0.41,4.104
		l-3.998,2.648c-2.2,1.457-5.396,3.719-7.103,5.025c-3.569,2.734-4.243,2.395-4.243-2.129c0-1.307-0.285-2.662-0.634-3.01
		c-1.36-1.359-1.347-31.509,0.013-31.941c2.152-0.683,6.326-4.478,7.968-7.245C38.248,164.326,38.257,164.404,36.611,171.952
		 M21.102,181.831c-0.024,2.906-0.18,3.859-0.501,3.064c-0.257-0.635-1.116-1.318-1.909-1.518c-2.174-0.545-0.929-5.764,1.375-5.764
		C21.041,177.613,21.133,177.989,21.102,181.831 M323.718,184.824c-0.013,29.768-13.993,61.561-36.806,83.695
		c-58.639,56.9-156.563,40.971-193.598-31.494c-3.706-7.25-4.317-6.039,5.645-11.178c31.337-16.164,67.408-24.813,153.471-36.793
		c10.924-1.52,25.129-3.508,31.563-4.418c13.132-1.857,37.687-5.889,38.044-6.247C323.35,177.077,323.721,178.495,323.718,184.824
		 M161.816,241.025c-1.796,0.74-4.122,1.35-5.17,1.357c-12.321,0.076-23.165,9.563-17.457,15.271c1.609,1.609,4.006,2.119,4.697,1
		c0.202-0.326,0.094-0.865-0.24-1.197c-2.304-2.305,1.02-7.801,6.406-10.588c5.283-2.734,6.042-2.432,3.211,1.289
		c-1.282,1.686-4.454,6.521-7.049,10.748c-2.595,4.229-4.922,7.631-5.17,7.564c-0.249-0.066-1.468-0.486-2.709-0.932
		c-5.09-1.822-10.065,2.338-6.753,5.648c1.595,1.596,4.641,1.963,7.827,0.945l2.729-0.873l2.144,1.936
		c8.796,7.947,20.441,1.064,23.554-13.922c1.285-6.184-0.014-11.373-3.605-14.395l-1.833-1.543l1.266-1.025
		c0.696-0.563,1.729-1.025,2.294-1.025c0.566,0,1.028-0.365,1.028-0.814C166.986,239.32,165.589,239.471,161.816,241.025
		 M163.659,246.205c6.932,6.934-2.106,26.102-12.307,26.102c-2.986,0-7.136-2.281-6.264-3.443c0.264-0.35,1.366-1.748,2.45-3.105
		s3.963-5.887,6.397-10.068C160.893,243.738,161.044,243.592,163.659,246.205 M231.521,249.078
		c-1.939,1.418,0.233,4.584,2.268,3.305c1.298-0.818,1.457-2.078,0.396-3.139C233.117,248.176,232.784,248.154,231.521,249.078
		 M225.626,250.385c-0.823,0.123-1.497,0.428-1.497,0.676c0,0.246-0.611,0.602-1.359,0.789c-1.455,0.365-1.904,1.953-0.553,1.953
		c0.676,0,0.626,0.469-0.307,2.857c-2.628,6.734-3.656,8.523-5.114,8.889c-2.112,0.531-2.137,0.191-0.321-4.477
		c2.006-5.158,2.002-5.092,0.321-5.092c-1.224,0-1.298-0.129-0.813-1.406c0.666-1.75,0.291-2.402-1.379-2.402
		c-2.642,0-4.215,4.664-1.687,4.998l1.306,0.172l-1.605,4.029c-2.528,6.352-0.524,9.332,4.195,6.24
		c1.353-0.887,1.479-0.889,1.959-0.031c0.655,1.172,3.611,1.207,5.242,0.066c1.1-0.77,1.293-0.77,2.064,0
		c1.136,1.137,2.855,1.07,4.922-0.191c1.42-0.865,1.826-0.916,2.449-0.313c3.08,2.984,7.859,0.012,10.949-6.809
		c2.854-6.297,2.816-5.986,0.721-5.986c-1.895,0-4.526,4.621-5.553,9.752c-0.349,1.746-1.67,2.602-2.592,1.68
		c-0.406-0.408-0.113-1.916,0.996-5.111c1.883-5.434,1.698-6.32-1.308-6.32c-2.12,0-3.181,1.213-1.54,1.76
		c1.122,0.373-2.163,8.547-3.721,9.258c-2.064,0.939-2.146,0.119-0.467-4.723c1.767-5.098,1.502-6.295-1.398-6.295
		c-1.846,0-2.393,0.703-1.571,2.018c1.124,1.801-2.429,9.41-4.394,9.41c-2.385,0,2.066-11.389,4.752-12.16
		c2.355-0.676,2.818-1.988,0.703-1.988c-1.197,0-1.521-0.205-1.285-0.816c0.172-0.449,0.104-0.779-0.153-0.736
		C227.332,250.119,226.449,250.26,225.626,250.385 M263.093,253.35c-1.034,1.477-1.146,3.697-0.188,3.771
		c0.375,0.031,1.293,0.092,2.041,0.137c3.748,0.229,0.334,9.063-3.502,9.063c-0.469,0-0.852-0.367-0.852-0.816
		s0.35-0.816,0.777-0.816c1.128,0,3.107-2.74,2.921-4.043c-0.421-2.928-4.413-0.406-5.093,3.217
		c-1.104,5.885,7.923,4.873,10.447-1.172c1.354-3.236,0.26-6.109-2.399-6.307c-0.89-0.066-1.138-0.326-0.879-0.928
		C267.641,252.49,264.921,250.74,263.093,253.35 M251.613,254.66c-3.399,1.773-5.715,5.578-5.715,9.393
		c0,5.98,7.908,4.869,11.17-1.572C260.206,256.291,257.08,251.811,251.613,254.66 M184.537,255.314
		c-1.305,0.211-1.679,1.512-0.544,1.891c0.654,0.221-0.394,4.174-1.883,7.104c-1.225,2.41-6.387,4-7.94,2.447
		c-1.554-1.555-0.785-3.156,1.515-3.156c3.957,0,7.497-4.951,5.19-7.258c-2.594-2.596-8.259,0.262-10.325,5.207
		c-2.551,6.104,1.426,9.832,7.694,7.213c2.463-1.029,2.615-0.867,1.563,1.648c-1.531,3.666-0.446,5.627,2.678,4.844
		c1.388-0.348,1.878-1.6,0.771-1.969c-1.856-0.617,0.688-4.672,2.757-4.395c3.787,0.508,7.504-2.678,9.026-7.734
		c1.346-4.471-1.071-7.316-4.683-5.514c-1.018,0.508-2.017,0.686-2.363,0.422C187.068,255.355,185.879,255.098,184.537,255.314
		 M201.43,255.961c-4.233,2.582-6.688,10.242-3.908,12.189c4.205,2.945,11.318-3.006,11.357-9.5
		C208.9,255.051,205.146,253.695,201.43,255.961 M254.939,257.748c-0.527,3.482-3.104,8.264-4.566,8.475
		c-1.492,0.215-1.615-1.338-0.383-4.83C251.872,256.059,255.611,253.307,254.939,257.748 M177.452,260.824
		c-0.996,1.34-3.393,2.271-3.389,1.316c0.004-0.754,2.216-4.213,3.175-4.965C178.63,256.084,178.802,259.01,177.452,260.824
		 M205.409,258.752c-0.847,5.291-5.77,11.576-5.77,7.365c0-3.375,3.25-9.592,5.011-9.592
		C205.65,256.525,205.729,256.756,205.409,258.752 M191.839,257.926c0.917,2.389-3.224,9.482-5.536,9.482
		c-1.672,0-1.673,0.057,0.063-4.613C188.202,257.857,190.894,255.463,191.839,257.926"/>
</g>
</svg>
