<?xml version="1.0" standalone="no"?>
<!DOCTYPE svg PUBLIC "-//W3C//DTD SVG 20010904//EN"
 "http://www.w3.org/TR/2001/REC-SVG-20010904/DTD/svg10.dtd">
<svg version="1.0" xmlns="http://www.w3.org/2000/svg"
 width="798.000000pt" height="798.000000pt" viewBox="0 0 798.000000 798.000000"
 preserveAspectRatio="xMidYMid meet">
<metadata>
Created by potrace 1.11, written by Peter Selinger 2001-2013
</metadata>
<g transform="translate(0.000000,798.000000) scale(0.100000,-0.100000)"
fill="#000000" stroke="none">
<path d="M3878 7595 c-2 -2 -32 -6 -68 -9 -186 -17 -368 -44 -505 -76 -27 -7
-63 -14 -80 -17 -29 -5 -291 -81 -373 -109 -171 -57 -441 -179 -617 -279 -89
-50 -285 -174 -295 -185 -3 -4 -34 -26 -70 -50 -129 -87 -331 -265 -480 -425
-121 -130 -182 -204 -283 -345 -26 -36 -51 -69 -55 -75 -4 -5 -19 -28 -32 -50
-13 -22 -26 -42 -29 -45 -4 -3 -12 -16 -20 -30 -8 -14 -37 -63 -64 -110 -76
-130 -161 -307 -222 -460 -30 -77 -55 -144 -55 -150 0 -6 -4 -18 -9 -28 -13
-22 -85 -270 -82 -279 0 -2 -6 -20 -14 -42 -7 -22 -11 -41 -9 -44 3 -2 -23
-10 -56 -16 -82 -16 -245 -69 -289 -93 -97 -53 -149 -144 -143 -245 3 -33 40
-63 79 -63 29 0 33 -3 28 -22 -13 -57 -44 -206 -49 -231 -2 -15 -7 -35 -10
-45 -8 -27 -18 -111 -21 -187 -6 -132 40 -176 177 -171 62 3 85 8 113 27 35
24 65 72 65 105 0 39 15 -1 16 -44 1 -26 4 -60 7 -77 3 -16 9 -63 12 -102 3
-40 8 -82 10 -94 3 -13 7 -43 10 -68 3 -25 12 -84 20 -130 8 -46 11 -89 7 -96
-4 -8 -36 -44 -72 -82 -36 -37 -92 -102 -125 -143 -33 -41 -62 -77 -65 -80
-15 -13 -103 -156 -129 -207 -52 -104 -59 -157 -26 -179 22 -14 30 -13 102 17
118 48 254 99 277 103 12 3 48 11 81 18 33 8 67 13 75 13 8 -1 22 -3 31 -3 9
-1 34 -43 63 -104 81 -174 165 -340 206 -408 22 -36 48 -82 60 -102 11 -21 48
-77 82 -125 34 -48 82 -117 106 -153 24 -36 63 -85 86 -110 22 -25 61 -70 86
-99 76 -90 282 -293 369 -361 24 -19 53 -45 65 -57 65 -68 581 -393 664 -418
12 -3 22 -11 22 -16 0 -5 6 -9 13 -9 7 0 36 -11 64 -25 49 -23 217 -94 238
-99 6 -2 22 -8 37 -14 45 -18 278 -90 368 -113 87 -21 96 -23 164 -34 21 -3
43 -8 49 -12 5 -3 26 -7 46 -8 20 -2 54 -6 76 -10 22 -3 52 -8 66 -11 14 -2
51 -6 81 -9 30 -3 77 -8 104 -11 65 -8 496 -9 554 -1 25 3 78 9 119 12 41 3
77 8 80 10 3 1 33 6 66 10 65 7 77 9 115 18 25 7 59 14 115 23 76 13 345 89
392 110 17 8 35 14 40 14 14 0 207 76 297 118 186 85 342 171 504 281 46 31
91 61 100 66 9 6 19 12 22 15 3 3 23 18 45 35 22 16 43 34 47 39 4 6 8 8 8 3
0 -4 11 0 25 9 14 9 22 20 19 25 -3 5 -2 8 3 7 7 -2 62 44 125 105 10 9 18 14
18 10 0 -5 31 25 68 65 38 39 74 72 80 72 7 0 16 8 19 18 4 9 32 42 62 73 31
31 78 84 104 118 26 33 54 61 62 61 13 0 16 5 14 26 0 3 11 14 26 25 14 12 23
24 20 29 -2 4 8 24 24 43 15 20 63 89 106 154 43 65 86 130 97 145 10 15 18
32 18 37 0 5 6 16 13 23 24 27 148 270 192 378 14 36 34 83 44 105 38 85 138
400 156 493 1 9 8 35 14 57 6 22 13 58 16 80 4 22 8 48 11 58 3 10 7 32 9 50
3 18 7 49 11 70 7 47 11 74 20 167 11 114 12 125 14 130 9 30 -3 507 -15 572
-2 9 -6 47 -10 85 l-6 69 58 49 c67 56 154 154 197 223 17 26 35 50 41 54 5 4
6 8 1 8 -4 0 -2 10 6 23 8 12 25 48 36 80 19 50 22 79 22 212 0 143 -2 159
-25 211 -25 58 -78 130 -125 171 -55 48 -159 89 -245 97 -67 5 -195 -45 -240
-94 -23 -26 -29 -25 -43 5 -10 21 -9 33 4 63 22 52 27 80 27 138 -1 105 -77
198 -171 209 -83 10 -102 16 -113 38 -7 12 -15 24 -18 27 -4 3 -31 39 -61 80
-29 41 -57 78 -62 81 -6 3 -9 10 -8 14 4 12 -54 85 -67 85 -7 0 -13 5 -13 10
0 6 -16 27 -35 47 -19 20 -35 42 -35 49 0 7 -9 16 -21 19 -11 4 -19 9 -16 11
2 2 -29 37 -69 78 -41 40 -70 77 -66 81 4 5 2 5 -4 2 -11 -6 -31 9 -65 49 -18
21 -63 59 -66 56 -4 -3 -87 73 -129 117 -23 25 -49 46 -57 47 -9 1 -60 33
-114 71 -119 84 -210 143 -222 143 -5 0 -11 4 -13 8 -7 16 -409 232 -433 232
-4 0 -32 12 -63 26 -31 15 -61 27 -67 29 -5 1 -21 6 -35 12 -60 25 -254 92
-287 100 -24 6 -38 10 -53 16 -18 8 -93 26 -135 33 -16 3 -41 9 -55 14 -14 5
-41 12 -60 15 -19 3 -48 8 -65 11 -16 3 -43 7 -60 9 -16 2 -39 6 -51 9 -21 4
-96 14 -189 23 -55 6 -472 13 -477 8z m2 -441 c0 -2 -7 -4 -15 -4 -8 0 -15 4
-15 10 0 5 7 7 15 4 8 -4 15 -8 15 -10z m54 7 c-9 -10 -44 -11 -44 -1 0 5 11
9 25 8 13 -1 22 -4 19 -7z m166 3 c-58 -8 -150 -8 -150 -1 0 4 39 6 88 6 48
-1 76 -3 62 -5z m84 -3 c-8 -8 -54 -7 -54 1 0 5 13 7 30 6 16 -1 27 -4 24 -7z
m-434 -13 c0 -4 -9 -8 -20 -8 -11 0 -20 4 -20 9 0 6 9 9 20 8 11 -1 20 -5 20
-9z m73 5 c-13 -2 -33 -2 -45 0 -13 2 -3 4 22 4 25 0 35 -2 23 -4z m511 -4
c-4 -7 -44 0 -44 7 0 2 11 3 24 2 14 -1 23 -5 20 -9z m-637 -5 c-3 -3 -23 -8
-44 -10 -46 -4 -113 -15 -183 -29 -14 -2 -41 -7 -60 -10 -32 -5 -170 -38 -212
-51 -11 -3 -18 0 -18 7 0 7 3 9 6 6 4 -3 14 -2 23 2 9 5 30 12 46 15 17 3 82
17 145 30 63 13 137 27 165 31 27 3 50 7 51 8 2 1 21 3 45 4 23 2 39 0 36 -3z
m-527 -103 c0 -7 -37 -19 -65 -21 -3 0 -35 -11 -72 -25 -37 -13 -69 -22 -71
-20 -6 6 63 33 125 49 30 8 58 17 61 20 8 9 22 7 22 -3z m-220 -68 c0 -5 -46
-26 -103 -47 -56 -21 -137 -56 -179 -77 -43 -21 -78 -35 -78 -31 0 7 44 29
155 78 33 14 79 35 102 45 24 10 49 19 57 19 8 0 18 5 21 10 7 12 25 13 25 3z
m3335 -163 c10 -11 16 -20 13 -20 -3 0 -13 9 -23 20 -10 11 -16 20 -13 20 3 0
13 -9 23 -20z m-3705 -4 c0 -2 -7 -6 -15 -10 -8 -3 -15 -1 -15 4 0 6 7 10 15
10 8 0 15 -2 15 -4z m-115 -62 c-105 -60 -122 -69 -110 -56 15 15 168 102 180
102 5 0 -26 -21 -70 -46z m-144 -83 c-31 -23 -90 -57 -76 -44 13 14 88 63 95
63 3 0 -6 -9 -19 -19z m-91 -55 c0 -2 -8 -10 -17 -17 -16 -13 -17 -12 -4 4 13
16 21 21 21 13z m-41 -28 c-2 -2 -17 -14 -34 -28 l-30 -25 24 28 c14 15 29 27
34 27 6 0 8 -1 6 -2z m-89 -73 c-13 -14 -26 -23 -28 -20 -4 4 38 44 47 45 3 0
-6 -11 -19 -25z m-70 -49 c0 -2 -8 -10 -17 -17 -16 -13 -17 -12 -4 4 13 16 21
21 21 13z m-50 -50 c0 -2 -7 -7 -16 -10 -8 -3 -12 -2 -9 4 6 10 25 14 25 6z
m-77 -61 c-3 -9 -8 -14 -10 -11 -3 3 -2 9 2 15 9 16 15 13 8 -4z m4658 -402
c13 -16 12 -17 -3 -4 -10 7 -18 15 -18 17 0 8 8 3 21 -13z m49 -63 c0 -5 -2
-10 -4 -10 -3 0 -8 5 -11 10 -3 6 -1 10 4 10 6 0 11 -4 11 -10z m585 -8 c-3
-3 -11 0 -18 7 -9 10 -8 11 6 5 10 -3 15 -9 12 -12z m40 -22 c10 -11 16 -20
13 -20 -3 0 -13 9 -23 20 -10 11 -16 20 -13 20 3 0 13 -9 23 -20z m-604 -7
c13 -16 12 -17 -3 -4 -10 7 -18 15 -18 17 0 8 8 3 21 -13z m404 -48 c-16 -13
-34 -24 -39 -25 -6 0 5 11 24 25 44 32 54 32 15 0z m-361 -11 c3 -8 2 -12 -4
-9 -6 3 -10 10 -10 16 0 14 7 11 14 -7z m-5286 -34 c-7 -10 -14 -17 -17 -15
-4 4 18 35 25 35 2 0 -1 -9 -8 -20z m5071 16 c-3 -3 -31 -7 -64 -9 -33 -3 -80
-12 -104 -20 -24 -9 -39 -11 -35 -7 20 20 92 39 148 39 33 1 57 -1 55 -3z
m242 -23 c13 -16 12 -17 -3 -4 -10 7 -18 15 -18 17 0 8 8 3 21 -13z m282 2
c-3 -9 -8 -14 -10 -11 -3 3 -2 9 2 15 9 16 15 13 8 -4z m-1226 -37 c-3 -8 -6
-5 -6 6 -1 11 2 17 5 13 3 -3 4 -12 1 -19z m996 -11 c4 3 7 4 7 0 0 -17 -20
-14 -36 6 -19 22 -19 22 2 4 11 -9 24 -14 27 -10z m210 8 c-3 -9 -8 -14 -10
-11 -3 3 -2 9 2 15 9 16 15 13 8 -4z m-608 -17 c-11 -6 -31 -20 -45 -32 -14
-11 -11 -6 7 12 18 17 38 32 45 32 7 0 4 -6 -7 -12z m905 -59 c-11 -21 -25
-39 -31 -39 -6 0 -3 7 6 16 9 9 19 29 22 45 3 16 9 26 14 23 5 -3 0 -23 -11
-45z m-1420 15 c0 -2 -7 -4 -15 -4 -8 0 -15 4 -15 10 0 5 7 7 15 4 8 -4 15 -8
15 -10z m1124 -10 c9 -24 2 -26 -12 -4 -7 11 -8 20 -3 20 5 0 12 -7 15 -16z
m-5666 -24 c-22 -30 -35 -41 -22 -17 9 16 36 47 41 47 2 0 -6 -13 -19 -30z
m4583 13 c13 -17 13 -17 -6 -3 -11 8 -22 16 -24 17 -2 2 0 3 6 3 6 0 17 -8 24
-17z m1154 8 c3 -5 2 -12 -3 -15 -5 -3 -9 1 -9 9 0 17 3 19 12 6z m-777 -41
c-7 -10 -14 -17 -17 -15 -4 4 18 35 25 35 2 0 -1 -9 -8 -20z m212 16 c0 -3 -4
-8 -10 -11 -5 -3 -10 -1 -10 4 0 6 5 11 10 11 6 0 10 -2 10 -4z m339 -58 c1
-5 -3 -8 -7 -8 -4 0 -8 12 -9 28 -1 23 -1 24 7 7 5 -11 9 -23 9 -27z m-1469
23 c0 -4 -11 -6 -25 -3 -14 2 -25 6 -25 8 0 2 11 4 25 4 14 0 25 -4 25 -9z
m521 -18 c13 -16 12 -17 -3 -4 -10 7 -18 15 -18 17 0 8 8 3 21 -13z m1865 -30
c-6 -6 -36 9 -36 18 0 5 9 4 20 -3 10 -7 18 -14 16 -15z m-1079 2 c0 -8 -4
-12 -9 -9 -5 3 -6 10 -3 15 9 13 12 11 12 -6z m-1560 -1 c-3 -3 -12 -4 -19 -1
-8 3 -5 6 6 6 11 1 17 -2 13 -5z m235 -16 c-7 -7 -12 -8 -12 -2 0 14 12 26 19
19 2 -3 -1 -11 -7 -17z m1498 0 c0 -5 14 -27 30 -48 30 -38 41 -63 17 -38 -34
35 -79 117 -57 103 6 -3 10 -11 10 -17z m-1010 -9 c-31 -24 -60 -41 -60 -35 0
6 72 56 80 56 3 0 -6 -9 -20 -21z m2021 -48 c19 -20 45 -53 58 -73 24 -41 63
-168 51 -168 -5 0 -11 18 -15 40 -12 71 -62 156 -128 217 -34 31 -48 48 -32
38 17 -10 46 -34 66 -54z m-2532 45 c-2 -2 -15 -9 -29 -15 -24 -11 -24 -11 -6
3 16 13 49 24 35 12z m-414 -16 c3 -5 1 -10 -4 -10 -6 0 -11 5 -11 10 0 6 2
10 4 10 3 0 8 -4 11 -10z m476 -13 c-10 -9 -11 -8 -5 6 3 10 9 15 12 12 3 -3
0 -11 -7 -18z m1289 13 c0 -5 -2 -10 -4 -10 -3 0 -8 5 -11 10 -3 6 -1 10 4 10
6 0 11 -4 11 -10z m910 0 c-8 -5 -19 -10 -25 -10 -5 0 -3 5 5 10 8 5 20 10 25
10 6 0 3 -5 -5 -10z m-2240 -62 c-11 -24 -20 -51 -20 -60 0 -9 -4 -19 -9 -22
-14 -9 10 87 27 107 23 26 23 21 2 -25z m867 0 c-3 -8 -6 -5 -6 6 -1 11 2 17
5 13 3 -3 4 -12 1 -19z m-4996 -11 c-10 -9 -11 -8 -5 6 3 10 9 15 12 12 3 -3
0 -11 -7 -18z m3876 4 c0 -11 -5 -18 -9 -15 -4 3 -5 11 -1 19 7 21 12 19 10
-4z m2578 -14 c59 -33 89 -93 87 -176 0 -36 -3 -73 -5 -81 -13 -48 -65 -158
-88 -184 -9 -12 -33 -41 -53 -64 l-36 -44 -10 27 c-5 14 -10 29 -10 32 0 8
-76 252 -100 320 -18 52 -18 53 5 95 56 106 116 127 210 75z m-3210 3 c-3 -5
-12 -10 -18 -10 -7 0 -6 4 3 10 19 12 23 12 15 0z m1570 0 c3 -5 1 -10 -4 -10
-6 0 -11 5 -11 10 0 6 2 10 4 10 3 0 8 -4 11 -10z m906 -7 c13 -16 12 -17 -3
-4 -10 7 -18 15 -18 17 0 8 8 3 21 -13z m-5740 -26 c-10 -9 -11 -8 -5 6 3 10
9 15 12 12 3 -3 0 -11 -7 -18z m3164 11 c5 4 5 1 1 -6 -5 -9 -12 -9 -27 -2
-10 6 -19 13 -19 16 0 2 8 0 19 -5 10 -6 22 -7 26 -3z m1571 -30 c-19 -39 -34
-57 -60 -78 -11 -8 -3 6 17 32 19 26 39 57 42 69 4 11 9 18 12 16 2 -3 -3 -20
-11 -39z m-1122 2 c-16 -32 -27 -40 -19 -15 3 8 7 22 10 30 2 8 9 15 14 15 5
0 3 -13 -5 -30z m1202 -6 c-6 -19 -12 -28 -14 -20 -3 13 14 56 22 56 2 0 -2
-16 -8 -36z m-1131 8 c-3 -3 -11 0 -18 7 -9 10 -8 11 6 5 10 -3 15 -9 12 -12z
m2473 -14 c2 -25 0 -29 -8 -18 -12 18 -13 50 -2 50 4 0 9 -15 10 -32z m-3024
-33 c15 -19 31 -33 37 -30 5 3 6 -1 3 -9 -8 -22 -21 -20 -29 4 -4 11 -23 37
-43 57 -21 20 -28 31 -16 25 11 -6 33 -27 48 -47z m309 30 c-16 -22 -33 -32
-33 -20 0 5 42 45 47 45 2 0 -4 -11 -14 -25z m2019 -2 c-3 -16 -7 -22 -10 -15
-4 13 4 42 11 42 2 0 2 -12 -1 -27z m-1342 -23 c0 -5 -5 -10 -11 -10 -5 0 -7
5 -4 10 3 6 8 10 11 10 2 0 4 -4 4 -10z m1540 0 c0 -5 -2 -10 -4 -10 -3 0 -8
5 -11 10 -3 6 -1 10 4 10 6 0 11 -4 11 -10z m-2640 -6 c0 -8 -19 -13 -24 -6
-3 5 1 9 9 9 8 0 15 -2 15 -3z m665 -4 c16 -6 14 -8 -12 -7 -18 0 -30 4 -27 9
6 10 12 9 39 -2z m522 -12 c-3 -8 -6 -5 -6 6 -1 11 2 17 5 13 3 -3 4 -12 1
-19z m1423 18 c0 -2 -7 -7 -16 -10 -8 -3 -12 -2 -9 4 6 10 25 14 25 6z m65 -6
c3 -5 1 -10 -4 -10 -6 0 -11 5 -11 10 0 6 2 10 4 10 3 0 8 -4 11 -10z m-3450
-10 c-3 -5 -12 -10 -18 -10 -7 0 -6 4 3 10 19 12 23 12 15 0z m1499 -2 c-3 -4
-11 -5 -19 -1 -21 7 -19 12 4 10 11 0 18 -5 15 -9z m2050 -14 c3 -8 2 -12 -4
-9 -6 3 -10 10 -10 16 0 14 7 11 14 -7z m-5841 -9 c-3 -9 -8 -14 -10 -11 -3 3
-2 9 2 15 9 16 15 13 8 -4z m5764 -17 c4 -28 -6 -18 -12 12 -2 12 -1 20 2 16
4 -4 8 -16 10 -28z m-3557 18 c0 -2 -7 -7 -16 -10 -8 -3 -12 -2 -9 4 6 10 25
14 25 6z m930 -12 c0 -8 -5 -12 -10 -9 -6 4 -8 11 -5 16 9 14 15 11 15 -7z
m317 -6 c-3 -8 -6 -5 -6 6 -1 11 2 17 5 13 3 -3 4 -12 1 -19z m1383 -15 c-11
-17 -11 -17 -6 0 3 10 6 24 7 30 0 9 2 9 5 0 3 -7 0 -20 -6 -30z m1073 17 c9
-11 13 -20 7 -20 -5 0 -14 9 -20 20 -6 11 -9 20 -8 20 2 0 11 -9 21 -20z
m-2513 2 c0 -5 -7 -9 -15 -9 -8 0 -12 4 -9 9 3 4 9 8 15 8 5 0 9 -4 9 -8z
m1011 -15 c-10 -9 -11 -8 -5 6 3 10 9 15 12 12 3 -3 0 -11 -7 -18z m-2121 4
c0 -4 -27 -17 -60 -28 -71 -23 -66 -11 6 17 59 23 54 22 54 11z m40 5 c0 -2
-7 -6 -15 -10 -8 -3 -15 -1 -15 4 0 6 7 10 15 10 8 0 15 -2 15 -4z m37 -2 c-3
-3 -12 -4 -19 -1 -8 3 -5 6 6 6 11 1 17 -2 13 -5z m1868 -46 c-4 -24 -11 -47
-16 -52 -5 -6 -5 3 1 22 10 37 10 37 10 57 0 8 2 15 5 15 3 0 3 -19 0 -42z
m1753 17 c-3 -3 -9 2 -12 12 -6 14 -5 15 5 6 7 -7 10 -15 7 -18z m-2988 11 c0
-3 -4 -8 -10 -11 -5 -3 -10 -1 -10 4 0 6 5 11 10 11 6 0 10 -2 10 -4z m685
-15 c3 -5 2 -12 -3 -15 -5 -3 -9 1 -9 9 0 17 3 19 12 6z m-3714 -24 c-10 -9
-11 -8 -5 6 3 10 9 15 12 12 3 -3 0 -11 -7 -18z m6019 4 c0 -6 -4 -12 -8 -15
-5 -3 -9 1 -9 9 0 8 4 15 9 15 4 0 8 -4 8 -9z m-3084 -88 c8 -18 22 -39 30
-48 9 -9 14 -18 11 -21 -3 -3 -19 13 -36 37 -24 32 -31 52 -30 83 2 33 3 35 6
11 2 -16 11 -44 19 -62z m338 79 c-6 -4 -21 -23 -33 -42 -12 -19 -21 -28 -21
-19 0 21 38 69 53 69 9 0 9 -2 1 -8z m2666 -49 c-1 -10 -39 39 -40 51 0 5 9
-3 20 -17 11 -14 20 -29 20 -34z m-3159 24 c-10 -9 -11 -8 -5 6 3 10 9 15 12
12 3 -3 0 -11 -7 -18z m-880 -4 c13 -16 12 -17 -3 -4 -10 7 -18 15 -18 17 0 8
8 3 21 -13z m503 -17 c9 -19 16 -45 15 -58 -1 -15 -4 -9 -10 16 -5 22 -17 48
-26 58 -9 10 -11 18 -6 18 6 0 18 -15 27 -34z m225 8 c17 -38 6 -41 -12 -5 -9
17 -12 31 -8 31 4 0 13 -12 20 -26z m-977 8 c-6 -5 -19 -17 -28 -28 -8 -10
-12 -12 -8 -4 12 26 26 40 38 40 7 0 7 -3 -2 -8z m936 -59 c27 -76 19 -331
-10 -350 -6 -3 -8 -1 -5 5 8 11 20 153 20 217 0 57 -12 124 -29 165 -8 19 -10
30 -4 24 5 -5 18 -33 28 -61z m4109 35 c-3 -8 -6 -5 -6 6 -1 11 2 17 5 13 3
-3 4 -12 1 -19z m-3930 -10 c-3 -8 -6 -5 -6 6 -1 11 2 17 5 13 3 -3 4 -12 1
-19z m-833 -4 c3 -8 2 -12 -4 -9 -6 3 -10 10 -10 16 0 14 7 11 14 -7z m424 4
c19 -19 14 -33 -6 -15 -15 13 -21 14 -31 4 -10 -9 -11 -8 -6 6 8 20 26 22 43
5z m639 -20 c-3 -7 -5 -2 -5 12 0 14 2 19 5 13 2 -7 2 -19 0 -25z m1255 -8
c-2 -22 -6 -40 -8 -40 -2 0 -4 18 -4 40 0 22 3 40 8 40 4 0 6 -18 4 -40z
m-1178 -30 c10 -13 9 -13 -6 -1 -10 7 -17 23 -17 35 1 20 2 20 6 1 3 -11 10
-27 17 -35z m2219 35 c-3 -9 -8 -14 -10 -11 -3 3 -2 9 2 15 9 16 15 13 8 -4z
m-2633 -55 c19 -64 20 -70 6 -70 -6 0 -12 8 -12 18 -1 20 -10 63 -19 95 -5 14
-4 18 2 12 5 -5 16 -30 23 -55z m3050 56 c0 -11 -19 -15 -25 -6 -3 5 1 10 9
10 9 0 16 -2 16 -4z m-4521 -29 c-9 -7 -19 -22 -23 -35 -7 -21 -26 -31 -26
-13 0 14 41 61 53 61 7 -1 5 -6 -4 -13z m1189 -12 c-3 -3 -9 2 -12 12 -6 14
-5 15 5 6 7 -7 10 -15 7 -18z m-400 -5 c-7 -11 -17 -20 -22 -20 -5 0 -1 9 9
20 10 11 20 20 22 20 2 0 -2 -9 -9 -20z m3278 -31 c-14 -25 -40 -58 -58 -74
l-32 -30 31 36 c17 20 41 55 54 78 12 22 24 39 26 37 2 -1 -8 -23 -21 -47z
m-3763 23 c17 -18 79 -152 71 -152 -2 0 -19 30 -36 68 -18 37 -41 75 -52 85
-10 9 -15 17 -9 17 5 0 17 -8 26 -18z m727 14 c0 -2 -8 -10 -17 -17 -16 -13
-17 -12 -4 4 13 16 21 21 21 13z m-997 -32 c-10 -15 -19 -22 -21 -15 -2 7 4
19 14 26 26 20 27 19 7 -11z m1207 16 c0 -5 -2 -10 -4 -10 -3 0 -8 5 -11 10
-3 6 -1 10 4 10 6 0 11 -4 11 -10z m277 -49 c-14 -5 -16 2 -9 34 l6 30 6 -30
c3 -16 2 -32 -3 -34z m533 44 c-6 -8 -9 -19 -5 -25 3 -5 2 -10 -3 -10 -19 0
-21 14 -5 32 19 21 31 25 13 3z m1864 -35 c3 -28 2 -39 -3 -30 -9 15 -14 44
-12 69 2 26 10 6 15 -39z m796 40 c0 -5 -5 -10 -11 -10 -5 0 -7 5 -4 10 3 6 8
10 11 10 2 0 4 -4 4 -10z m-4469 -17 c13 -16 12 -17 -3 -4 -10 7 -18 15 -18
17 0 8 8 3 21 -13z m-563 0 c-10 -2 -26 -2 -35 0 -10 3 -2 5 17 5 19 0 27 -2
18 -5z m2143 -10 c13 -16 12 -17 -3 -4 -17 13 -22 21 -14 21 2 0 10 -8 17 -17z
m-833 -38 c-6 -14 -15 -25 -20 -25 -5 0 -1 11 8 25 9 14 18 25 20 25 2 0 -2
-11 -8 -25z m2064 -33 c-2 -20 -10 -44 -19 -52 -14 -14 -14 -13 -4 7 6 13 12
39 13 58 1 19 4 33 7 30 3 -3 4 -22 3 -43z m-874 13 c0 -20 -3 -23 -14 -14
-10 8 -11 14 -1 24 7 8 13 14 13 15 1 0 2 -11 2 -25z m-2528 10 c0 -7 -30 -13
-34 -7 -3 4 4 9 15 9 10 1 19 0 19 -2z m415 -7 c5 4 5 1 1 -6 -5 -9 -12 -9
-27 -2 -10 6 -19 13 -19 16 0 2 8 0 19 -5 10 -6 22 -7 26 -3z m3805 2 c0 -5
-2 -10 -4 -10 -3 0 -8 5 -11 10 -3 6 -1 10 4 10 6 0 11 -4 11 -10z m-3564 -45
c9 -39 0 -30 -15 15 -6 19 -7 30 -2 25 5 -6 13 -23 17 -40z m1167 15 c-7 -27
-13 -25 -11 4 1 14 5 23 9 20 4 -2 5 -13 2 -24z m3357 26 c0 -2 -8 -10 -17
-17 -16 -13 -17 -12 -4 4 13 16 21 21 21 13z m-4732 -31 c-3 -3 -9 2 -12 12
-6 14 -5 15 5 6 7 -7 10 -15 7 -18z m2782 21 c0 -3 -4 -8 -10 -11 -5 -3 -10
-1 -10 4 0 6 5 11 10 11 6 0 10 -2 10 -4z m-1910 -21 c0 -8 -4 -15 -10 -15 -5
0 -7 7 -4 15 4 8 8 15 10 15 2 0 4 -7 4 -15z m740 -82 c0 -10 -40 15 -62 40
-40 43 -34 43 17 0 25 -20 45 -38 45 -40z m2216 59 c-10 -2 -22 0 -28 6 -6 6
0 7 19 4 21 -5 23 -7 9 -10z m-4276 -7 c16 -10 40 -75 39 -104 l-2 -26 -4 25
c-5 34 -34 100 -45 101 -4 1 -12 2 -17 3 -5 0 -13 4 -17 8 -8 8 31 2 46 -7z
m178 -20 c-3 -3 -9 2 -12 12 -6 14 -5 15 5 6 7 -7 10 -15 7 -18z m1122 -20
c-16 -47 -23 -40 -8 8 6 20 13 35 16 33 2 -3 -1 -21 -8 -41z m1065 5 c9 -16
13 -30 11 -30 -3 0 -12 14 -21 30 -9 17 -13 30 -11 30 3 0 12 -13 21 -30z
m-1687 -5 c-3 -3 -9 2 -12 12 -6 14 -5 15 5 6 7 -7 10 -15 7 -18z m3127 -5
c-3 -5 -14 -10 -23 -9 -14 0 -13 2 3 9 27 11 27 11 20 0z m-3845 -4 c0 -2 -7
-7 -16 -10 -8 -3 -12 -2 -9 4 6 10 25 14 25 6z m3247 -30 c-1 -19 -5 -32 -9
-30 -3 2 -5 12 -3 22 2 9 4 23 4 30 1 6 3 12 5 12 3 0 4 -15 3 -34z m1010 19
c24 -2 59 1 78 5 19 4 35 4 35 0 0 -21 -173 -21 -193 0 -10 10 -7 11 12 5 14
-4 44 -9 68 -10z m-782 -5 c3 -6 -1 -7 -9 -4 -18 7 -21 14 -7 14 6 0 13 -4 16
-10z m-2334 -34 c-14 -36 -22 -33 -9 5 6 16 12 28 14 26 3 -2 0 -16 -5 -31z
m1702 11 c3 -8 -1 -14 -9 -14 -8 0 -14 6 -14 14 0 7 4 13 9 13 5 0 11 -6 14
-13z m-2966 -21 c-7 -14 -13 -23 -15 -21 -7 6 9 45 18 45 4 0 3 -11 -3 -24z
m863 14 c0 -5 -2 -10 -4 -10 -3 0 -8 5 -11 10 -3 6 -1 10 4 10 6 0 11 -4 11
-10z m577 -22 c-3 -7 -5 -2 -5 12 0 14 2 19 5 13 2 -7 2 -19 0 -25z m-855 -20
c-8 -8 -9 -4 -5 13 4 13 8 18 11 10 2 -7 -1 -18 -6 -23z m-1458 -3 c-10 -8
-23 -15 -28 -15 -6 0 -1 7 10 15 10 8 23 15 28 15 6 0 1 -7 -10 -15z m224 3
c-8 -7 -21 -22 -27 -33 -11 -18 -11 -18 -5 5 7 25 21 40 38 40 6 0 3 -6 -6
-12z m6327 2 c-3 -5 -12 -10 -18 -10 -7 0 -6 4 3 10 19 12 23 12 15 0z m-4430
-55 c-4 -25 -9 -44 -12 -41 -2 2 -1 25 2 51 4 25 9 44 12 41 2 -2 1 -25 -2
-51z m1933 30 c-3 -3 -9 2 -12 12 -6 14 -5 15 5 6 7 -7 10 -15 7 -18z m-3217
-8 c-10 -9 -11 -8 -5 6 3 10 9 15 12 12 3 -3 0 -11 -7 -18z m61 -9 c-8 -8 -9
-4 -5 13 4 13 8 18 11 10 2 -7 -1 -18 -6 -23z m-947 12 c-3 -5 -16 -15 -28
-21 -19 -9 -19 -8 3 10 28 23 34 26 25 11z m1593 -10 c-14 -22 -24 -19 -15 5
4 8 11 15 17 15 6 0 6 -7 -2 -20z m2937 0 c10 -11 16 -20 13 -20 -3 0 -13 9
-23 20 -10 11 -16 20 -13 20 3 0 13 -9 23 -20z m-1285 0 c0 -5 -2 -10 -4 -10
-3 0 -8 5 -11 10 -3 6 -1 10 4 10 6 0 11 -4 11 -10z m-3591 -4 c-8 -8 -60 -15
-55 -8 2 4 17 9 32 10 15 1 25 0 23 -2z m491 -11 c-7 -8 -20 -15 -28 -15 -13
0 -12 3 4 15 25 19 40 19 24 0z m984 -1 c3 -8 2 -12 -4 -9 -6 3 -10 10 -10 16
0 14 7 11 14 -7z m823 1 c0 -8 -4 -12 -9 -9 -5 3 -6 10 -3 15 9 13 12 11 12
-6z m394 -8 c-10 -9 -11 -8 -5 6 3 10 9 15 12 12 3 -3 0 -11 -7 -18z m1283
-17 c-6 -6 -10 -3 -10 10 0 13 4 16 10 10 7 -7 7 -13 0 -20z m-3674 6 c0 -2
-7 -7 -16 -10 -8 -3 -12 -2 -9 4 6 10 25 14 25 6z m1627 -11 c0 -8 -4 -12 -9
-9 -5 3 -6 10 -3 15 9 13 12 11 12 -6z m-1458 3 c-2 -2 -23 -21 -47 -43 -23
-21 -42 -36 -42 -33 0 10 74 78 84 78 5 0 7 -1 5 -2z m741 -13 c0 -8 -4 -15
-10 -15 -5 0 -7 7 -4 15 4 8 8 15 10 15 2 0 4 -7 4 -15z m1543 -13 c-3 -12 -9
-22 -14 -22 -5 0 -3 11 3 25 13 30 20 28 11 -3z m-518 8 c3 -5 2 -10 -4 -10
-5 0 -13 5 -16 10 -3 6 -2 10 4 10 5 0 13 -4 16 -10z m-2235 -4 c0 -2 -7 -6
-15 -10 -8 -3 -15 -1 -15 4 0 6 7 10 15 10 8 0 15 -2 15 -4z m887 -18 c-3 -8
-6 -5 -6 6 -1 11 2 17 5 13 3 -3 4 -12 1 -19z m-935 3 c-8 -4 -13 -12 -13 -17
0 -5 -4 -22 -9 -39 -9 -27 -9 -26 -4 10 7 47 11 55 27 55 8 0 8 -3 -1 -9z
m7248 5 c0 -2 -8 -10 -17 -17 -16 -13 -17 -12 -4 4 13 16 21 21 21 13z m-6007
-26 c-3 -11 -10 -23 -16 -27 -5 -3 -8 -2 -5 3 3 5 8 17 11 27 9 24 16 22 10
-3z m2449 -2 c-7 -7 -12 -8 -12 -2 0 6 3 14 7 17 3 4 9 5 12 2 2 -3 -1 -11 -7
-17z m568 6 c0 -8 -5 -12 -10 -9 -6 4 -8 11 -5 16 9 14 15 11 15 -7z m-4510 2
c0 -2 -8 -10 -17 -17 -16 -13 -17 -12 -4 4 13 16 21 21 21 13z m4267 -18 c-3
-8 -6 -5 -6 6 -1 11 2 17 5 13 3 -3 4 -12 1 -19z m-3729 -13 c-3 -3 -9 2 -12
12 -6 14 -5 15 5 6 7 -7 10 -15 7 -18z m1404 -17 c-8 -8 -9 -4 -5 13 4 13 8
18 11 10 2 -7 -1 -18 -6 -23z m-1812 7 c-7 -9 -15 -13 -19 -10 -3 3 1 10 9 15
21 14 24 12 10 -5z m3791 -14 c-22 -30 -53 -53 -86 -64 -15 -5 -14 -2 5 10 14
10 39 32 55 50 37 40 53 43 26 4z m-246 9 c-3 -5 -14 -10 -23 -9 -14 0 -13 2
3 9 27 11 27 11 20 0z m1172 4 c-3 -3 -12 -4 -19 -1 -8 3 -5 6 6 6 11 1 17 -2
13 -5z m43 2 c0 -2 -7 -7 -16 -10 -8 -3 -12 -2 -9 4 6 10 25 14 25 6z m2540 1
c0 -2 -14 -16 -32 -33 -18 -16 -26 -20 -18 -9 19 25 50 52 50 42z m-7347 -22
c-3 -9 -8 -14 -10 -11 -3 3 -2 9 2 15 9 16 15 13 8 -4z m501 0 c-4 -8 -11 -15
-16 -15 -6 0 -5 6 2 15 7 8 14 15 16 15 2 0 1 -7 -2 -15z m3640 -2 c4 -10 4
-14 0 -10 -4 4 -14 1 -22 -6 -13 -11 -14 -9 -1 11 17 26 15 26 23 5z m146 -14
c73 0 74 -4 2 -17 -46 -8 -56 -7 -77 10 -14 11 -25 24 -25 30 0 6 9 3 19 -6
14 -13 36 -18 81 -17z m-1798 -21 c-6 -6 -7 0 -4 19 5 21 7 23 10 9 2 -10 0
-22 -6 -28z m168 35 c0 -5 -5 -15 -10 -23 -7 -12 -9 -10 -7 8 1 19 17 33 17
15z m-2523 -35 c-3 -8 -6 -5 -6 6 -1 11 2 17 5 13 3 -3 4 -12 1 -19z m6723 18
c0 -2 -7 -7 -16 -10 -8 -3 -12 -2 -9 4 6 10 25 14 25 6z m-3730 -36 c-6 -11
-13 -20 -16 -20 -2 0 0 9 6 20 6 11 13 20 16 20 2 0 0 -9 -6 -20z m1078 -5
c-2 -1 -15 -5 -30 -9 -22 -5 -25 -3 -21 13 4 17 9 18 29 9 13 -6 23 -12 22
-13z m-4278 11 c0 -2 -8 -10 -17 -17 -16 -13 -17 -12 -4 4 13 16 21 21 21 13z
m7330 -1 c0 -21 -301 -192 -405 -230 -27 -10 -54 -22 -60 -25 -16 -11 -55 -19
-55 -11 0 3 30 17 68 30 87 31 314 148 389 200 62 43 63 43 63 36z m-5883 -37
c-3 -8 -6 -5 -6 6 -1 11 2 17 5 13 3 -3 4 -12 1 -19z m803 2 c0 -5 -5 -10 -11
-10 -5 0 -7 5 -4 10 3 6 8 10 11 10 2 0 4 -4 4 -10z m304 -52 c-4 -24 -8 -45
-11 -48 -4 -4 1 61 6 88 1 1 3 2 6 2 2 0 2 -19 -1 -42z m3679 17 c-7 -21 -12
-19 -10 4 0 11 5 18 9 15 4 -3 5 -11 1 -19z m-6323 -5 c-8 -5 -22 -9 -30 -9
-10 0 -8 3 5 9 27 12 43 12 25 0z m3238 -10 c-7 -10 -14 -17 -17 -15 -4 4 18
35 25 35 2 0 -1 -9 -8 -20z m545 3 c-7 -2 -19 -2 -25 0 -7 3 -2 5 12 5 14 0
19 -2 13 -5z m-2436 -25 c-3 -8 -6 -5 -6 6 -1 11 2 17 5 13 3 -3 4 -12 1 -19z
m644 -1 c-10 -9 -11 -8 -5 6 3 10 9 15 12 12 3 -3 0 -11 -7 -18z m736 1 c-3
-8 -6 -5 -6 6 -1 11 2 17 5 13 3 -3 4 -12 1 -19z m1120 16 c-3 -3 -12 -4 -19
-1 -8 3 -5 6 6 6 11 1 17 -2 13 -5z m-1802 -21 c-2 -10 -4 -21 -4 -25 -1 -5
-6 -8 -12 -8 -6 0 -7 5 -2 13 4 6 8 15 9 20 3 14 4 17 8 17 2 0 3 -8 1 -17z
m829 -20 c19 -37 45 -66 79 -87 15 -10 27 -23 26 -30 0 -7 -2 -6 -6 2 -2 6
-11 12 -18 12 -7 0 -16 -6 -18 -12 -3 -8 -6 -6 -6 5 -1 9 -13 30 -27 47 -23
25 -54 75 -54 86 0 12 11 1 24 -23z m317 7 c-23 -20 -77 -28 -67 -11 3 5 14 7
24 5 9 -3 26 2 37 10 29 22 34 19 6 -4z m-2091 -4 c0 -2 -8 -10 -17 -17 -16
-13 -17 -12 -4 4 13 16 21 21 21 13z m1536 -34 c-4 -3 -11 0 -16 8 -15 24 -11
33 6 15 9 -9 13 -19 10 -23z m193 8 c13 -10 21 -24 19 -30 -2 -6 -14 3 -26 19
-26 36 -24 39 7 11z m3401 6 c0 -2 -7 -7 -16 -10 -8 -3 -12 -2 -9 4 6 10 25
14 25 6z m-3505 -27 c-4 -5 4 -13 17 -18 l23 -10 -22 0 c-13 -1 -23 2 -24 7 0
4 -2 15 -4 25 -2 9 1 15 6 11 5 -3 7 -10 4 -15z m-2408 -26 c-3 -10 -5 -4 -5
12 0 17 2 24 5 18 2 -7 2 -21 0 -30z m5740 21 c-3 -3 -12 -4 -19 -1 -8 3 -5 6
6 6 11 1 17 -2 13 -5z m-4106 -27 c-10 -9 -11 -8 -5 6 3 10 9 15 12 12 3 -3 0
-11 -7 -18z m839 2 c0 -6 -4 -7 -10 -4 -5 3 -10 11 -10 16 0 6 5 7 10 4 6 -3
10 -11 10 -16z m425 12 c-6 -5 -21 -11 -35 -15 -21 -5 -20 -3 5 9 35 17 42 18
30 6z m2725 -1 c-8 -5 -19 -10 -25 -10 -5 0 -3 5 5 10 8 5 20 10 25 10 6 0 3
-5 -5 -10z m-2790 -14 c0 -3 -4 -8 -10 -11 -5 -3 -10 -1 -10 4 0 6 5 11 10 11
6 0 10 -2 10 -4z m1853 -12 c15 2 27 -1 27 -5 0 -5 -18 -9 -40 -9 -32 0 -38 3
-33 16 3 9 8 12 12 5 4 -5 19 -8 34 -7z m844 10 c-3 -3 -12 -4 -19 -1 -8 3 -5
6 6 6 11 1 17 -2 13 -5z m-4897 -26 c0 -6 -6 -5 -15 2 -8 7 -15 14 -15 16 0 2
7 1 15 -2 8 -4 15 -11 15 -16z m4115 4 c-3 -3 -11 0 -18 7 -9 10 -8 11 6 5 10
-3 15 -9 12 -12z m-4720 -42 c-22 -22 -42 -40 -46 -40 -4 0 12 19 35 43 22 23
43 41 45 39 3 -1 -13 -20 -34 -42z m526 19 c-5 -13 -10 -19 -10 -12 -1 15 10
45 15 40 3 -2 0 -15 -5 -28z m1521 6 c3 -13 1 -22 -3 -19 -9 5 -13 44 -5 44 2
0 6 -11 8 -25z m3192 17 c3 -5 -1 -9 -9 -9 -8 0 -12 4 -9 9 3 4 7 8 9 8 2 0 6
-4 9 -8z m-4952 -28 c-3 -17 -7 -22 -12 -13 -9 13 -2 39 10 39 4 0 5 -12 2
-26z m4863 16 c-3 -5 -12 -10 -18 -10 -7 0 -6 4 3 10 19 12 23 12 15 0z
m-2715 -9 c0 -5 -7 -12 -16 -15 -14 -5 -15 -4 -4 9 14 17 20 19 20 6z m267 -7
c-3 -3 -12 -4 -19 -1 -8 3 -5 6 6 6 11 1 17 -2 13 -5z m-1079 -24 c-7 -10 -14
-17 -17 -15 -4 4 18 35 25 35 2 0 -1 -9 -8 -20z m603 -5 c11 2 19 0 19 -6 0
-16 -47 -9 -71 11 l-24 20 29 -14 c16 -8 37 -13 47 -11z m4318 11 c-2 -2 -17
-6 -34 -9 l-30 -6 30 13 c26 12 47 13 34 2z m-2945 -25 c-10 -10 -80 -18 -88
-10 -5 4 24 10 67 12 9 1 17 6 17 11 0 5 3 6 7 3 4 -4 2 -11 -3 -16z m883 3
c-3 -3 -12 -4 -19 -1 -8 3 -5 6 6 6 11 1 17 -2 13 -5z m1983 -3 c-26 -15 -66
-24 -55 -13 6 5 19 12 30 15 32 8 41 7 25 -2z m-2975 -11 c-3 -5 -12 -10 -18
-10 -7 0 -6 4 3 10 19 12 23 12 15 0z m755 6 c0 -3 -4 -8 -10 -11 -5 -3 -10
-1 -10 4 0 6 5 11 10 11 6 0 10 -2 10 -4z m-860 -16 c-8 -5 -19 -10 -25 -10
-5 0 -3 5 5 10 8 5 20 10 25 10 6 0 3 -5 -5 -10z m53 3 c-7 -2 -19 -2 -25 0
-7 3 -2 5 12 5 14 0 19 -2 13 -5z m712 -3 c3 -6 -1 -7 -9 -4 -18 7 -21 14 -7
14 6 0 13 -4 16 -10z m-2555 -4 c0 -2 -8 -10 -17 -17 -16 -13 -17 -12 -4 4 13
16 21 21 21 13z m225 -34 c-6 -6 -34 11 -39 24 -4 11 0 10 18 -3 13 -10 23
-19 21 -21z m1518 31 c-7 -2 -19 -2 -25 0 -7 3 -2 5 12 5 14 0 19 -2 13 -5z
m-168 -13 c-3 -5 -12 -10 -18 -10 -7 0 -6 4 3 10 19 12 23 12 15 0z m3170 0
c-27 -12 -43 -12 -25 0 8 5 22 9 30 9 10 0 8 -3 -5 -9z m-4830 -10 c-3 -5 -12
-10 -18 -10 -7 0 -6 4 3 10 19 12 23 12 15 0z m-585 -24 c0 -2 -8 -10 -17 -17
-16 -13 -17 -12 -4 4 13 16 21 21 21 13z m550 1 c0 -2 -10 -12 -22 -23 l-23
-19 19 23 c18 21 26 27 26 19z m-447 -21 c4 -10 0 -12 -14 -9 -10 3 -16 9 -13
14 8 13 21 11 27 -5z m1547 -12 c0 -2 -9 -4 -21 -4 -11 0 -18 4 -14 10 5 8 35
3 35 -6z m50 12 c0 -3 -4 -8 -10 -11 -5 -3 -10 -1 -10 4 0 6 5 11 10 11 6 0
10 -2 10 -4z m57 -2 c-3 -3 -12 -4 -19 -1 -8 3 -5 6 6 6 11 1 17 -2 13 -5z
m510 0 c-3 -3 -12 -4 -19 -1 -8 3 -5 6 6 6 11 1 17 -2 13 -5z m-3331 -30 c-4
-9 -9 -15 -11 -12 -3 3 -3 13 1 22 4 9 9 15 11 12 3 -3 3 -13 -1 -22z m1134
12 c0 -2 -14 -19 -31 -37 -18 -19 -26 -25 -18 -14 27 40 49 63 49 51z m-1038
-119 c1 -31 -1 -59 -5 -63 -3 -3 -20 4 -37 16 -24 17 -30 28 -26 48 7 43 16
61 34 65 27 6 33 -6 34 -66z m525 41 c-3 -7 -5 -2 -5 12 0 14 2 19 5 13 2 -7
2 -19 0 -25z m1910 6 c-3 -3 -12 -4 -19 -1 -8 3 -5 6 6 6 11 1 17 -2 13 -5z
m-1707 -36 c15 -21 17 -28 6 -19 -16 13 -41 51 -33 51 2 0 14 -15 27 -32z
m1627 26 c-3 -3 -12 -4 -19 -1 -8 3 -5 6 6 6 11 1 17 -2 13 -5z m-1402 -14
c-3 -5 -12 -10 -18 -10 -7 0 -6 4 3 10 19 12 23 12 15 0z m1362 4 c-3 -3 -12
-4 -19 -1 -8 3 -5 6 6 6 11 1 17 -2 13 -5z m-1760 -10 c-3 -3 -12 -4 -19 -1
-8 3 -5 6 6 6 11 1 17 -2 13 -5z m1593 -8 c0 -2 -7 -7 -16 -10 -8 -3 -12 -2
-9 4 6 10 25 14 25 6z m-1569 -43 c-12 -20 -14 -14 -5 12 4 9 9 14 11 11 3 -2
0 -13 -6 -23z m1496 21 c-3 -3 -12 -4 -19 -1 -8 3 -5 6 6 6 11 1 17 -2 13 -5z
m-262 -44 c-3 -5 -12 -10 -18 -10 -7 0 -6 4 3 10 19 12 23 12 15 0z m-35 -4
c0 -2 -7 -7 -16 -10 -8 -3 -12 -2 -9 4 6 10 25 14 25 6z m-60 -16 c-8 -5 -19
-10 -25 -10 -5 0 -3 5 5 10 8 5 20 10 25 10 6 0 3 -5 -5 -10z m-1285 -12 c25
0 43 -4 40 -9 -8 -11 -87 -1 -100 13 -7 8 -6 9 3 4 7 -4 33 -8 57 -8z m1240 2
c-3 -5 -12 -10 -18 -10 -7 0 -6 4 3 10 19 12 23 12 15 0z m-1740 -20 c3 -5 2
-10 -4 -10 -5 0 -13 5 -16 10 -3 6 -2 10 4 10 5 0 13 -4 16 -10z m1655 6 c0
-2 -7 -7 -16 -10 -8 -3 -12 -2 -9 4 6 10 25 14 25 6z m-43 -12 c-5 -5 -137
-41 -182 -50 -61 -12 -75 -17 -75 -26 0 -6 -3 -9 -6 -6 -3 4 -19 2 -37 -3 -23
-6 -28 -6 -19 3 9 9 157 51 256 73 10 2 20 6 22 8 2 1 13 3 25 4 12 1 19 0 16
-3z m2858 -24 c3 -5 1 -10 -4 -10 -6 0 -11 5 -11 10 0 6 2 10 4 10 3 0 8 -4
11 -10z m-4489 -39 c-3 -5 -16 -11 -28 -14 -22 -6 -22 -5 -4 8 22 17 40 20 32
6z m1294 -30 c0 -5 -12 -11 -27 -15 -16 -3 -39 -8 -53 -11 -14 -3 -5 3 20 14
51 23 60 24 60 12z m-1433 -7 c-3 -3 -12 -4 -19 -1 -8 3 -5 6 6 6 11 1 17 -2
13 -5z m1323 -28 c0 -6 -131 -48 -136 -44 -2 2 24 14 59 26 64 21 77 25 77 18z
m-154 -55 c-6 -9 -46 -22 -46 -15 0 3 10 9 23 14 29 11 29 11 23 1z m1774
-195 c0 -11 -19 -15 -25 -6 -3 5 1 10 9 10 9 0 16 -2 16 -4z m4041 -43 c-12
-20 -14 -14 -5 12 4 9 9 14 11 11 3 -2 0 -13 -6 -23z m-4501 -27 c0 -2 -7 -7
-16 -10 -8 -3 -12 -2 -9 4 6 10 25 14 25 6z m-50 -16 c0 -5 -5 -10 -11 -10 -5
0 -7 5 -4 10 3 6 8 10 11 10 2 0 4 -4 4 -10z m137 -16 c-3 -3 -12 -4 -19 -1
-8 3 -5 6 6 6 11 1 17 -2 13 -5z m-40 -10 c-3 -3 -12 -4 -19 -1 -8 3 -5 6 6 6
11 1 17 -2 13 -5z m-38 -8 c-8 -8 -79 -35 -79 -30 0 6 60 33 74 34 5 0 7 -2 5
-4z m-89 -30 c0 -6 -93 -37 -97 -32 -2 2 15 11 39 19 47 17 58 19 58 13z
m-220 -26 c-8 -5 -19 -10 -25 -10 -5 0 -3 5 5 10 8 5 20 10 25 10 6 0 3 -5 -5
-10z m4771 -33 c-10 -9 -11 -8 -5 6 3 10 9 15 12 12 3 -3 0 -11 -7 -18z
m-4731 -7 c-8 -5 -19 -10 -25 -10 -5 0 -3 5 5 10 8 5 20 10 25 10 6 0 3 -5 -5
-10z m-165 -10 c-3 -5 -12 -10 -18 -10 -7 0 -6 4 3 10 19 12 23 12 15 0z m-35
-14 c0 -2 -7 -7 -16 -10 -8 -3 -12 -2 -9 4 6 10 25 14 25 6z m-54 -21 c-11 -8
-25 -15 -30 -15 -6 1 0 7 14 15 32 19 40 18 16 0z m-31 -75 c-3 -5 -12 -10
-18 -10 -7 0 -6 4 3 10 19 12 23 12 15 0z m2405 -139 c0 -11 -59 -26 -67 -18
-3 3 10 10 28 16 19 5 35 10 37 10 1 1 2 -3 2 -8z m-157 -18 c-7 -2 -19 -2
-25 0 -7 3 -2 5 12 5 14 0 19 -2 13 -5z m-4069 -58 c-20 -25 -39 -45 -42 -45
-5 0 8 17 52 68 35 40 28 23 -10 -23z m3891 15 c-3 -5 -12 -10 -18 -10 -7 0
-6 4 3 10 19 12 23 12 15 0z m-88 -6 c-3 -3 -12 -4 -19 -1 -8 3 -5 6 6 6 11 1
17 -2 13 -5z m53 -39 c0 -7 -30 -13 -34 -7 -3 4 4 9 15 9 10 1 19 0 19 -2z
m-3936 -87 c-44 -62 -66 -87 -39 -43 43 70 68 105 72 101 2 -2 -12 -28 -33
-58z m423 -64 c-3 -3 -12 -4 -19 -1 -8 3 -5 6 6 6 11 1 17 -2 13 -5z m2618
-34 c10 -11 16 -20 13 -20 -3 0 -13 9 -23 20 -10 11 -16 20 -13 20 3 0 13 -9
23 -20z m-2314 -8 c-7 -2 -18 1 -23 6 -8 8 -4 9 13 5 13 -4 18 -8 10 -11z m64
-22 c3 -6 -1 -7 -9 -4 -18 7 -21 14 -7 14 6 0 13 -4 16 -10z m70 -40 c3 -6 -1
-7 -9 -4 -18 7 -21 14 -7 14 6 0 13 -4 16 -10z m2275 -75 c0 -5 -5 -3 -10 5
-5 8 -10 20 -10 25 0 6 5 3 10 -5 5 -8 10 -19 10 -25z m1260 -20 c8 -11 11
-17 6 -13 -4 4 -20 2 -35 -3 -24 -9 -25 -8 -7 6 11 8 16 15 12 15 -4 0 -4 5
-1 11 4 6 8 9 9 7 1 -2 8 -12 16 -23z m714 -17 c4 -17 3 -18 -7 -7 -7 7 -19
19 -27 26 -13 10 -12 11 7 7 11 -3 24 -15 27 -26z m-1968 -66 c-2 -52 -11 -95
-26 -130 -13 -29 -25 -51 -27 -48 -2 2 3 20 11 40 20 48 29 100 30 168 1 31 4
54 8 52 4 -3 6 -40 4 -82z m1079 48 c3 -5 1 -10 -4 -10 -6 0 -11 5 -11 10 0 6
2 10 4 10 3 0 8 -4 11 -10z m303 -7 c-10 -2 -26 -2 -35 0 -10 3 -2 5 17 5 19
0 27 -2 18 -5z m132 -2 c0 -5 -7 -12 -16 -15 -14 -5 -15 -4 -4 9 14 17 20 19
20 6z m474 -40 c-7 -9 -34 10 -34 24 0 13 3 12 18 -2 10 -10 17 -20 16 -22z
m-2534 -58 c0 -2 -13 4 -30 14 -16 9 -30 21 -30 25 0 5 14 -1 30 -14 17 -12
30 -23 30 -25z m1455 37 c3 -5 1 -10 -4 -10 -6 0 -11 5 -11 10 0 6 2 10 4 10
3 0 8 -4 11 -10z m-368 -32 c-3 -7 -5 -2 -5 12 0 14 2 19 5 13 2 -7 2 -19 0
-25z m-74 -8 c-7 -27 -13 -25 -11 4 1 14 5 23 9 20 4 -2 5 -13 2 -24z m648 -7
c-12 -20 -14 -14 -5 12 4 9 9 14 11 11 3 -2 0 -13 -6 -23z m-3197 -39 c3 -8 2
-12 -4 -9 -6 3 -10 10 -10 16 0 14 7 11 14 -7z m2203 1 c0 -8 -4 -12 -9 -9 -5
3 -6 10 -3 15 9 13 12 11 12 -6z m993 11 c0 -3 -4 -8 -10 -11 -5 -3 -10 -1
-10 4 0 6 5 11 10 11 6 0 10 -2 10 -4z m-843 -48 c-12 -23 -28 -44 -36 -46 -7
-2 -4 5 8 17 11 11 21 27 21 34 0 11 19 37 27 37 1 0 -8 -19 -20 -42z m-67 17
c-7 -8 -17 -15 -23 -15 -6 0 -2 7 9 15 25 19 30 19 14 0z m-2250 -33 c0 -10
118 -191 137 -210 7 -8 18 -23 24 -35 9 -19 7 -18 -11 3 -52 62 -172 250 -160
250 6 0 10 -4 10 -8z m3446 -24 c-10 -6 -22 -6 -26 -2 -5 5 3 10 18 11 22 1
24 0 8 -9z m-1941 -8 c-3 -5 -12 -10 -18 -10 -7 0 -6 4 3 10 19 12 23 12 15 0z
m368 -35 c-3 -9 -8 -14 -10 -11 -3 3 -2 9 2 15 9 16 15 13 8 -4z m887 12 c0
-2 -10 -12 -22 -23 l-23 -19 19 23 c18 21 26 27 26 19z m151 -14 c13 -16 12
-17 -3 -4 -17 13 -22 21 -14 21 2 0 10 -8 17 -17z m284 -1 c-3 -3 -11 0 -18 7
-9 10 -8 11 6 5 10 -3 15 -9 12 -12z m166 1 c13 -16 12 -17 -3 -4 -17 13 -22
21 -14 21 2 0 10 -8 17 -17z m-946 -23 c3 -5 1 -10 -4 -10 -6 0 -11 5 -11 10
0 6 2 10 4 10 3 0 8 -4 11 -10z m-84 -53 c-10 -9 -11 -8 -5 6 3 10 9 15 12 12
3 -3 0 -11 -7 -18z m2939 -90 c0 -2 -10 -12 -22 -23 l-23 -19 19 23 c18 21 26
27 26 19z m-5035 -106 c-5 -5 -54 52 -55 64 0 5 13 -6 29 -25 16 -19 27 -37
26 -39z m26 -28 c13 -16 12 -17 -3 -4 -10 7 -18 15 -18 17 0 8 8 3 21 -13z
m4877 -33 c-7 -10 -14 -17 -17 -15 -4 4 18 35 25 35 2 0 -1 -9 -8 -20z m-4809
-54 c-3 -3 -11 5 -18 17 -13 21 -12 21 5 5 10 -10 16 -20 13 -22z m4481 -270
c0 -2 -8 -10 -17 -17 -16 -13 -17 -12 -4 4 13 16 21 21 21 13z m-40 -29 c0 -2
-10 -12 -22 -23 l-23 -19 19 23 c18 21 26 27 26 19z m-150 -120 c0 -2 -10 -12
-22 -23 l-23 -19 19 23 c18 21 26 27 26 19z m-660 -387 c0 -5 -5 -10 -11 -10
-5 0 -7 5 -4 10 3 6 8 10 11 10 2 0 4 -4 4 -10z m-2395 -48 c-3 -3 -11 0 -18
7 -9 10 -8 11 6 5 10 -3 15 -9 12 -12z m120 -32 c13 -6 15 -9 5 -9 -8 0 -22 4
-30 9 -18 12 -2 12 25 0z m60 -28 c-3 -3 -11 0 -18 7 -9 10 -8 11 6 5 10 -3
15 -9 12 -12z m165 -42 c8 -5 11 -10 5 -10 -5 0 -17 5 -25 10 -8 5 -10 10 -5
10 6 0 17 -5 25 -10z m1550 -14 c0 -3 -4 -8 -10 -11 -5 -3 -10 -1 -10 4 0 6 5
11 10 11 6 0 10 -2 10 -4z m-1380 -26 c0 -5 -2 -10 -4 -10 -3 0 -8 5 -11 10
-3 6 -1 10 4 10 6 0 11 -4 11 -10z m37 -6 c-3 -3 -12 -4 -19 -1 -8 3 -5 6 6 6
11 1 17 -2 13 -5z m73 -14 c8 -5 11 -10 5 -10 -5 0 -17 5 -25 10 -8 5 -10 10
-5 10 6 0 17 -5 25 -10z m1055 1 c-9 -8 -36 -10 -30 -2 2 4 11 8 20 8 8 0 13
-3 10 -6z m42 3 c-3 -3 -12 -4 -19 -1 -8 3 -5 6 6 6 11 1 17 -2 13 -5z m-1043
-13 c4 -5 -3 -7 -14 -4 -23 6 -26 13 -6 13 8 0 17 -4 20 -9z m43 -7 c-3 -3
-12 -4 -19 -1 -8 3 -5 6 6 6 11 1 17 -2 13 -5z m817 -2 c3 -5 -1 -9 -9 -9 -8
0 -12 4 -9 9 3 4 7 8 9 8 2 0 6 -4 9 -8z m-697 -8 c-3 -3 -12 -4 -19 -1 -8 3
-5 6 6 6 11 1 17 -2 13 -5z m66 -11 c-7 -2 -19 -2 -25 0 -7 3 -2 5 12 5 14 0
19 -2 13 -5z m142 -4 c3 -3 -6 -5 -19 -5 -14 1 -28 4 -31 7 -3 3 6 5 19 5 14
-1 28 -4 31 -7z m219 3 c3 -5 -1 -9 -9 -9 -8 0 -12 4 -9 9 3 4 7 8 9 8 2 0 6
-4 9 -8z m113 2 c-3 -3 -12 -4 -19 -1 -8 3 -5 6 6 6 11 1 17 -2 13 -5z m-264
-11 c-7 -2 -21 -2 -30 0 -10 3 -4 5 12 5 17 0 24 -2 18 -5z m50 0 c-7 -2 -19
-2 -25 0 -7 3 -2 5 12 5 14 0 19 -2 13 -5z m60 0 c-7 -2 -19 -2 -25 0 -7 3 -2
5 12 5 14 0 19 -2 13 -5z"/>
</g>
</svg>
